G04 EAGLE Gerber RS-274X export*
G75*
%MOMM*%
%FSLAX34Y34*%
%LPD*%
%INTop Copper*%
%IPPOS*%
%AMOC8*
5,1,8,0,0,1.08239X$1,22.5*%
G01*
%ADD10C,2.540000*%
%ADD11R,1.700000X1.000000*%
%ADD12C,1.508000*%
%ADD13C,1.650000*%
%ADD14C,0.756400*%
%ADD15C,0.304800*%
%ADD16C,0.609600*%
%ADD17C,1.206400*%
%ADD18C,0.812800*%
%ADD19C,0.152400*%
%ADD20C,1.006400*%

G36*
X1272737Y-940617D02*
X1272737Y-940617D01*
X1272837Y-940602D01*
X1272848Y-940597D01*
X1272859Y-940595D01*
X1272946Y-940544D01*
X1273034Y-940495D01*
X1273042Y-940487D01*
X1273053Y-940480D01*
X1273116Y-940402D01*
X1273182Y-940327D01*
X1273186Y-940316D01*
X1273194Y-940306D01*
X1273226Y-940211D01*
X1273262Y-940117D01*
X1273262Y-940105D01*
X1273266Y-940094D01*
X1273263Y-939993D01*
X1273264Y-939893D01*
X1273260Y-939881D01*
X1273259Y-939869D01*
X1273221Y-939776D01*
X1273187Y-939682D01*
X1273179Y-939673D01*
X1273175Y-939662D01*
X1273107Y-939588D01*
X1273042Y-939511D01*
X1273031Y-939504D01*
X1273023Y-939496D01*
X1272983Y-939475D01*
X1272906Y-939429D01*
X1268179Y-934702D01*
X1265625Y-928537D01*
X1265625Y-921863D01*
X1268179Y-915698D01*
X1272898Y-910979D01*
X1279063Y-908425D01*
X1285737Y-908425D01*
X1291902Y-910979D01*
X1296621Y-915698D01*
X1299175Y-921863D01*
X1299175Y-928537D01*
X1296621Y-934702D01*
X1291892Y-939431D01*
X1291834Y-939468D01*
X1291747Y-939520D01*
X1291740Y-939529D01*
X1291730Y-939535D01*
X1291670Y-939616D01*
X1291606Y-939694D01*
X1291602Y-939705D01*
X1291595Y-939715D01*
X1291567Y-939811D01*
X1291534Y-939906D01*
X1291535Y-939918D01*
X1291531Y-939930D01*
X1291538Y-940030D01*
X1291541Y-940131D01*
X1291545Y-940142D01*
X1291546Y-940153D01*
X1291587Y-940246D01*
X1291625Y-940338D01*
X1291633Y-940347D01*
X1291638Y-940358D01*
X1291709Y-940430D01*
X1291777Y-940504D01*
X1291787Y-940510D01*
X1291795Y-940518D01*
X1291886Y-940560D01*
X1291976Y-940607D01*
X1291989Y-940609D01*
X1291999Y-940613D01*
X1292044Y-940617D01*
X1292161Y-940634D01*
X1330000Y-940634D01*
X1330024Y-940630D01*
X1330055Y-940632D01*
X1331792Y-940480D01*
X1331835Y-940468D01*
X1331901Y-940461D01*
X1333584Y-940010D01*
X1333625Y-939991D01*
X1333688Y-939972D01*
X1335268Y-939235D01*
X1335305Y-939209D01*
X1335364Y-939180D01*
X1336792Y-938180D01*
X1336823Y-938148D01*
X1336876Y-938109D01*
X1338109Y-936876D01*
X1338134Y-936840D01*
X1338180Y-936792D01*
X1339180Y-935364D01*
X1339198Y-935323D01*
X1339235Y-935268D01*
X1339972Y-933688D01*
X1339983Y-933645D01*
X1340010Y-933584D01*
X1340461Y-931901D01*
X1340463Y-931870D01*
X1340470Y-931848D01*
X1340470Y-931833D01*
X1340480Y-931792D01*
X1340632Y-930055D01*
X1340630Y-930031D01*
X1340634Y-930000D01*
X1340634Y-881674D01*
X1340627Y-881633D01*
X1340629Y-881590D01*
X1340607Y-881523D01*
X1340595Y-881453D01*
X1340573Y-881417D01*
X1340560Y-881377D01*
X1340506Y-881304D01*
X1340480Y-881260D01*
X1340464Y-881247D01*
X1340448Y-881226D01*
X1331431Y-872209D01*
X1331431Y-771006D01*
X1331424Y-770964D01*
X1331426Y-770921D01*
X1331404Y-770854D01*
X1331392Y-770785D01*
X1331370Y-770748D01*
X1331357Y-770708D01*
X1331303Y-770635D01*
X1331277Y-770592D01*
X1331261Y-770578D01*
X1331245Y-770557D01*
X1324357Y-763669D01*
X1324323Y-763645D01*
X1324294Y-763613D01*
X1324231Y-763581D01*
X1324173Y-763541D01*
X1324132Y-763530D01*
X1324094Y-763511D01*
X1324005Y-763497D01*
X1323956Y-763485D01*
X1323935Y-763487D01*
X1323909Y-763483D01*
X1319656Y-763483D01*
X1316547Y-760375D01*
X1316547Y-755978D01*
X1319656Y-752870D01*
X1324052Y-752870D01*
X1327161Y-755978D01*
X1327161Y-757586D01*
X1327168Y-757628D01*
X1327166Y-757671D01*
X1327188Y-757738D01*
X1327200Y-757807D01*
X1327222Y-757844D01*
X1327235Y-757884D01*
X1327289Y-757957D01*
X1327315Y-758000D01*
X1327331Y-758014D01*
X1327347Y-758035D01*
X1337529Y-768217D01*
X1337529Y-834435D01*
X1337545Y-834523D01*
X1337554Y-834611D01*
X1337564Y-834633D01*
X1337568Y-834656D01*
X1337614Y-834733D01*
X1337653Y-834812D01*
X1337670Y-834829D01*
X1337683Y-834849D01*
X1337752Y-834905D01*
X1337816Y-834966D01*
X1337838Y-834976D01*
X1337857Y-834991D01*
X1337941Y-835019D01*
X1338023Y-835054D01*
X1338047Y-835055D01*
X1338069Y-835062D01*
X1338158Y-835060D01*
X1338247Y-835064D01*
X1338270Y-835057D01*
X1338294Y-835056D01*
X1338376Y-835023D01*
X1338461Y-834995D01*
X1338482Y-834979D01*
X1338501Y-834972D01*
X1338539Y-834938D01*
X1338611Y-834884D01*
X1340448Y-833047D01*
X1340473Y-833012D01*
X1340504Y-832983D01*
X1340536Y-832920D01*
X1340577Y-832862D01*
X1340587Y-832821D01*
X1340607Y-832784D01*
X1340620Y-832694D01*
X1340633Y-832645D01*
X1340630Y-832624D01*
X1340634Y-832598D01*
X1340634Y-750000D01*
X1340630Y-749976D01*
X1340632Y-749945D01*
X1340480Y-748208D01*
X1340468Y-748165D01*
X1340461Y-748099D01*
X1340010Y-746416D01*
X1339991Y-746375D01*
X1339972Y-746312D01*
X1339235Y-744732D01*
X1339209Y-744695D01*
X1339180Y-744636D01*
X1338180Y-743208D01*
X1338148Y-743177D01*
X1338109Y-743124D01*
X1336876Y-741891D01*
X1336840Y-741866D01*
X1336792Y-741820D01*
X1335364Y-740820D01*
X1335323Y-740802D01*
X1335268Y-740765D01*
X1333688Y-740028D01*
X1333645Y-740017D01*
X1333584Y-739990D01*
X1331901Y-739539D01*
X1331856Y-739536D01*
X1331792Y-739520D01*
X1330055Y-739368D01*
X1330031Y-739370D01*
X1330000Y-739366D01*
X1256707Y-739366D01*
X1256642Y-739377D01*
X1256576Y-739379D01*
X1256533Y-739397D01*
X1256486Y-739405D01*
X1256429Y-739439D01*
X1256369Y-739464D01*
X1256334Y-739495D01*
X1256293Y-739520D01*
X1256251Y-739571D01*
X1256203Y-739615D01*
X1256181Y-739657D01*
X1256152Y-739694D01*
X1256131Y-739756D01*
X1256100Y-739815D01*
X1256092Y-739869D01*
X1256080Y-739906D01*
X1256081Y-739946D01*
X1256073Y-740000D01*
X1256073Y-760690D01*
X1256088Y-760777D01*
X1256098Y-760866D01*
X1256108Y-760887D01*
X1256112Y-760911D01*
X1256158Y-760987D01*
X1256197Y-761067D01*
X1256214Y-761083D01*
X1256227Y-761104D01*
X1256296Y-761160D01*
X1256360Y-761221D01*
X1256382Y-761230D01*
X1256401Y-761245D01*
X1256485Y-761274D01*
X1256567Y-761308D01*
X1256591Y-761309D01*
X1256613Y-761317D01*
X1256702Y-761314D01*
X1256791Y-761318D01*
X1256814Y-761311D01*
X1256838Y-761310D01*
X1256920Y-761277D01*
X1257005Y-761250D01*
X1257026Y-761234D01*
X1257045Y-761226D01*
X1257083Y-761192D01*
X1257155Y-761138D01*
X1258275Y-760019D01*
X1271590Y-746703D01*
X1293210Y-746703D01*
X1297772Y-751265D01*
X1297807Y-751290D01*
X1297835Y-751321D01*
X1297898Y-751353D01*
X1297956Y-751394D01*
X1297997Y-751404D01*
X1298035Y-751424D01*
X1298125Y-751437D01*
X1298173Y-751450D01*
X1298194Y-751447D01*
X1298220Y-751451D01*
X1299281Y-751451D01*
X1299323Y-751444D01*
X1299365Y-751446D01*
X1299432Y-751424D01*
X1299502Y-751412D01*
X1299539Y-751390D01*
X1299579Y-751377D01*
X1299652Y-751323D01*
X1299695Y-751297D01*
X1299708Y-751281D01*
X1299730Y-751265D01*
X1301802Y-749193D01*
X1306198Y-749193D01*
X1309307Y-752302D01*
X1309307Y-756698D01*
X1306198Y-759807D01*
X1301802Y-759807D01*
X1299730Y-757735D01*
X1299695Y-757710D01*
X1299666Y-757679D01*
X1299603Y-757647D01*
X1299545Y-757606D01*
X1299504Y-757596D01*
X1299467Y-757576D01*
X1299377Y-757563D01*
X1299328Y-757550D01*
X1299307Y-757553D01*
X1299281Y-757549D01*
X1299121Y-757549D01*
X1299033Y-757565D01*
X1298944Y-757574D01*
X1298923Y-757584D01*
X1298900Y-757588D01*
X1298823Y-757634D01*
X1298743Y-757673D01*
X1298727Y-757690D01*
X1298706Y-757703D01*
X1298650Y-757772D01*
X1298589Y-757836D01*
X1298580Y-757858D01*
X1298565Y-757877D01*
X1298537Y-757961D01*
X1298502Y-758043D01*
X1298501Y-758067D01*
X1298493Y-758089D01*
X1298496Y-758178D01*
X1298492Y-758267D01*
X1298499Y-758290D01*
X1298500Y-758314D01*
X1298533Y-758396D01*
X1298561Y-758481D01*
X1298576Y-758502D01*
X1298584Y-758521D01*
X1298618Y-758559D01*
X1298672Y-758631D01*
X1300648Y-760607D01*
X1303925Y-768518D01*
X1303925Y-777082D01*
X1300648Y-784993D01*
X1294593Y-791048D01*
X1286682Y-794325D01*
X1278118Y-794325D01*
X1270207Y-791048D01*
X1264152Y-784993D01*
X1263769Y-784067D01*
X1263715Y-783983D01*
X1263663Y-783896D01*
X1263654Y-783889D01*
X1263648Y-783879D01*
X1263567Y-783818D01*
X1263489Y-783755D01*
X1263478Y-783751D01*
X1263468Y-783744D01*
X1263372Y-783715D01*
X1263277Y-783683D01*
X1263265Y-783683D01*
X1263253Y-783680D01*
X1263153Y-783687D01*
X1263052Y-783690D01*
X1263041Y-783694D01*
X1263030Y-783695D01*
X1262938Y-783736D01*
X1262845Y-783774D01*
X1262836Y-783782D01*
X1262825Y-783787D01*
X1262753Y-783857D01*
X1262679Y-783925D01*
X1262673Y-783936D01*
X1262665Y-783944D01*
X1262623Y-784035D01*
X1262576Y-784125D01*
X1262574Y-784138D01*
X1262570Y-784147D01*
X1262566Y-784193D01*
X1262549Y-784310D01*
X1262549Y-797819D01*
X1262556Y-797861D01*
X1262554Y-797903D01*
X1262576Y-797971D01*
X1262588Y-798040D01*
X1262610Y-798077D01*
X1262623Y-798117D01*
X1262677Y-798190D01*
X1262703Y-798233D01*
X1262719Y-798246D01*
X1262735Y-798268D01*
X1264073Y-799606D01*
X1264073Y-823975D01*
X1264080Y-824017D01*
X1264078Y-824059D01*
X1264100Y-824126D01*
X1264112Y-824196D01*
X1264134Y-824233D01*
X1264147Y-824273D01*
X1264201Y-824346D01*
X1264227Y-824389D01*
X1264243Y-824402D01*
X1264259Y-824424D01*
X1264807Y-824972D01*
X1264807Y-829368D01*
X1261698Y-832477D01*
X1257302Y-832477D01*
X1256754Y-831929D01*
X1256719Y-831904D01*
X1256690Y-831873D01*
X1256627Y-831841D01*
X1256569Y-831800D01*
X1256528Y-831790D01*
X1256491Y-831770D01*
X1256401Y-831757D01*
X1256352Y-831744D01*
X1256331Y-831747D01*
X1256305Y-831743D01*
X1255987Y-831743D01*
X1255945Y-831750D01*
X1255903Y-831748D01*
X1255835Y-831770D01*
X1255766Y-831782D01*
X1255729Y-831804D01*
X1255689Y-831817D01*
X1255616Y-831871D01*
X1255573Y-831897D01*
X1255560Y-831913D01*
X1255538Y-831929D01*
X1218338Y-869129D01*
X1218314Y-869164D01*
X1218282Y-869192D01*
X1218250Y-869255D01*
X1218210Y-869313D01*
X1218199Y-869354D01*
X1218180Y-869392D01*
X1218167Y-869482D01*
X1218165Y-869487D01*
X1218159Y-869505D01*
X1218159Y-869509D01*
X1218154Y-869530D01*
X1218156Y-869551D01*
X1218152Y-869577D01*
X1218152Y-914226D01*
X1218160Y-914267D01*
X1218158Y-914310D01*
X1218179Y-914377D01*
X1218192Y-914446D01*
X1218214Y-914483D01*
X1218227Y-914523D01*
X1218280Y-914596D01*
X1218306Y-914640D01*
X1218322Y-914653D01*
X1218338Y-914674D01*
X1218886Y-915222D01*
X1218886Y-919619D01*
X1215778Y-922727D01*
X1211381Y-922727D01*
X1210833Y-922179D01*
X1210798Y-922155D01*
X1210770Y-922123D01*
X1210707Y-922091D01*
X1210649Y-922051D01*
X1210608Y-922040D01*
X1210570Y-922021D01*
X1210480Y-922007D01*
X1210432Y-921995D01*
X1210411Y-921997D01*
X1210385Y-921993D01*
X1147026Y-921993D01*
X1127526Y-902493D01*
X1127491Y-902468D01*
X1127462Y-902437D01*
X1127399Y-902405D01*
X1127341Y-902364D01*
X1127300Y-902354D01*
X1127263Y-902334D01*
X1127173Y-902321D01*
X1127124Y-902308D01*
X1127103Y-902311D01*
X1127077Y-902307D01*
X1126302Y-902307D01*
X1123193Y-899198D01*
X1123193Y-898423D01*
X1123186Y-898381D01*
X1123188Y-898339D01*
X1123166Y-898271D01*
X1123154Y-898202D01*
X1123132Y-898165D01*
X1123119Y-898125D01*
X1123065Y-898052D01*
X1123039Y-898009D01*
X1123023Y-897996D01*
X1123007Y-897974D01*
X1110120Y-885087D01*
X1110120Y-791538D01*
X1116701Y-784958D01*
X1116725Y-784923D01*
X1116756Y-784894D01*
X1116788Y-784831D01*
X1116829Y-784773D01*
X1116839Y-784732D01*
X1116859Y-784694D01*
X1116872Y-784605D01*
X1116885Y-784556D01*
X1116882Y-784535D01*
X1116886Y-784509D01*
X1116886Y-783734D01*
X1119995Y-780625D01*
X1124391Y-780625D01*
X1127500Y-783734D01*
X1127500Y-788130D01*
X1124391Y-791239D01*
X1123616Y-791239D01*
X1123574Y-791246D01*
X1123532Y-791244D01*
X1123465Y-791266D01*
X1123395Y-791278D01*
X1123358Y-791300D01*
X1123318Y-791313D01*
X1123245Y-791367D01*
X1123202Y-791392D01*
X1123189Y-791409D01*
X1123167Y-791424D01*
X1119452Y-795140D01*
X1119427Y-795175D01*
X1119396Y-795204D01*
X1119364Y-795267D01*
X1119323Y-795324D01*
X1119313Y-795366D01*
X1119293Y-795403D01*
X1119280Y-795493D01*
X1119268Y-795542D01*
X1119270Y-795563D01*
X1119266Y-795589D01*
X1119266Y-881036D01*
X1119273Y-881078D01*
X1119271Y-881120D01*
X1119279Y-881145D01*
X1119280Y-881146D01*
X1119293Y-881188D01*
X1119305Y-881257D01*
X1119327Y-881294D01*
X1119340Y-881334D01*
X1119394Y-881407D01*
X1119420Y-881450D01*
X1119436Y-881463D01*
X1119452Y-881485D01*
X1129474Y-891507D01*
X1129509Y-891532D01*
X1129538Y-891563D01*
X1129601Y-891595D01*
X1129659Y-891636D01*
X1129700Y-891646D01*
X1129737Y-891666D01*
X1129827Y-891679D01*
X1129876Y-891692D01*
X1129897Y-891689D01*
X1129923Y-891693D01*
X1130698Y-891693D01*
X1133807Y-894802D01*
X1133807Y-895577D01*
X1133814Y-895619D01*
X1133812Y-895661D01*
X1133834Y-895729D01*
X1133846Y-895798D01*
X1133868Y-895835D01*
X1133881Y-895875D01*
X1133935Y-895948D01*
X1133961Y-895991D01*
X1133977Y-896004D01*
X1133993Y-896026D01*
X1150629Y-912662D01*
X1150664Y-912686D01*
X1150692Y-912718D01*
X1150755Y-912750D01*
X1150813Y-912790D01*
X1150854Y-912801D01*
X1150892Y-912820D01*
X1150982Y-912833D01*
X1151030Y-912846D01*
X1151051Y-912844D01*
X1151077Y-912848D01*
X1208373Y-912848D01*
X1208437Y-912836D01*
X1208503Y-912834D01*
X1208547Y-912816D01*
X1208593Y-912808D01*
X1208650Y-912775D01*
X1208711Y-912750D01*
X1208746Y-912718D01*
X1208787Y-912694D01*
X1208828Y-912643D01*
X1208877Y-912598D01*
X1208898Y-912556D01*
X1208928Y-912520D01*
X1208949Y-912457D01*
X1208979Y-912399D01*
X1208987Y-912344D01*
X1209000Y-912307D01*
X1208999Y-912268D01*
X1209007Y-912213D01*
X1209007Y-865526D01*
X1251936Y-822597D01*
X1254293Y-822597D01*
X1254358Y-822586D01*
X1254424Y-822584D01*
X1254467Y-822566D01*
X1254514Y-822558D01*
X1254571Y-822524D01*
X1254631Y-822499D01*
X1254666Y-822468D01*
X1254707Y-822443D01*
X1254749Y-822392D01*
X1254797Y-822348D01*
X1254819Y-822306D01*
X1254848Y-822269D01*
X1254869Y-822207D01*
X1254900Y-822148D01*
X1254908Y-822094D01*
X1254920Y-822057D01*
X1254919Y-822017D01*
X1254927Y-821963D01*
X1254927Y-803657D01*
X1254920Y-803615D01*
X1254922Y-803573D01*
X1254900Y-803505D01*
X1254888Y-803436D01*
X1254866Y-803399D01*
X1254853Y-803359D01*
X1254810Y-803301D01*
X1254809Y-803298D01*
X1254803Y-803291D01*
X1254799Y-803286D01*
X1254773Y-803243D01*
X1254757Y-803230D01*
X1254741Y-803208D01*
X1246927Y-795394D01*
X1246927Y-752109D01*
X1246912Y-752021D01*
X1246902Y-751933D01*
X1246892Y-751911D01*
X1246888Y-751888D01*
X1246842Y-751811D01*
X1246803Y-751732D01*
X1246786Y-751715D01*
X1246773Y-751695D01*
X1246704Y-751639D01*
X1246640Y-751578D01*
X1246618Y-751568D01*
X1246599Y-751553D01*
X1246515Y-751525D01*
X1246433Y-751490D01*
X1246409Y-751489D01*
X1246387Y-751482D01*
X1246298Y-751484D01*
X1246209Y-751480D01*
X1246186Y-751487D01*
X1246162Y-751488D01*
X1246080Y-751522D01*
X1245995Y-751549D01*
X1245974Y-751565D01*
X1245955Y-751572D01*
X1245917Y-751606D01*
X1245845Y-751660D01*
X1245198Y-752307D01*
X1240802Y-752307D01*
X1239730Y-751235D01*
X1239695Y-751210D01*
X1239666Y-751179D01*
X1239603Y-751147D01*
X1239545Y-751106D01*
X1239504Y-751096D01*
X1239467Y-751076D01*
X1239377Y-751063D01*
X1239328Y-751050D01*
X1239307Y-751053D01*
X1239281Y-751049D01*
X1147719Y-751049D01*
X1147677Y-751056D01*
X1147635Y-751054D01*
X1147568Y-751076D01*
X1147498Y-751088D01*
X1147461Y-751110D01*
X1147421Y-751123D01*
X1147348Y-751177D01*
X1147305Y-751203D01*
X1147292Y-751219D01*
X1147270Y-751235D01*
X1145198Y-753307D01*
X1140802Y-753307D01*
X1137693Y-750198D01*
X1137693Y-745802D01*
X1140802Y-742693D01*
X1145198Y-742693D01*
X1147270Y-744765D01*
X1147305Y-744790D01*
X1147334Y-744821D01*
X1147397Y-744853D01*
X1147455Y-744894D01*
X1147496Y-744904D01*
X1147533Y-744924D01*
X1147623Y-744937D01*
X1147672Y-744950D01*
X1147693Y-744947D01*
X1147719Y-744951D01*
X1237281Y-744951D01*
X1237323Y-744944D01*
X1237365Y-744946D01*
X1237432Y-744924D01*
X1237502Y-744912D01*
X1237539Y-744890D01*
X1237579Y-744877D01*
X1237652Y-744823D01*
X1237695Y-744797D01*
X1237708Y-744781D01*
X1237730Y-744765D01*
X1240802Y-741693D01*
X1245198Y-741693D01*
X1245845Y-742340D01*
X1245918Y-742391D01*
X1245987Y-742447D01*
X1246009Y-742454D01*
X1246029Y-742468D01*
X1246115Y-742490D01*
X1246199Y-742518D01*
X1246223Y-742518D01*
X1246246Y-742524D01*
X1246335Y-742514D01*
X1246424Y-742512D01*
X1246446Y-742503D01*
X1246469Y-742500D01*
X1246549Y-742461D01*
X1246631Y-742428D01*
X1246649Y-742412D01*
X1246670Y-742401D01*
X1246731Y-742336D01*
X1246797Y-742276D01*
X1246808Y-742255D01*
X1246824Y-742238D01*
X1246859Y-742156D01*
X1246900Y-742077D01*
X1246903Y-742050D01*
X1246912Y-742031D01*
X1246914Y-741981D01*
X1246927Y-741891D01*
X1246927Y-740000D01*
X1246916Y-739935D01*
X1246914Y-739869D01*
X1246896Y-739826D01*
X1246888Y-739779D01*
X1246854Y-739722D01*
X1246829Y-739662D01*
X1246798Y-739627D01*
X1246773Y-739586D01*
X1246722Y-739545D01*
X1246678Y-739496D01*
X1246636Y-739474D01*
X1246599Y-739445D01*
X1246537Y-739424D01*
X1246478Y-739393D01*
X1246424Y-739385D01*
X1246387Y-739373D01*
X1246347Y-739374D01*
X1246293Y-739366D01*
X1090000Y-739366D01*
X1089976Y-739370D01*
X1089945Y-739368D01*
X1088208Y-739520D01*
X1088165Y-739532D01*
X1088099Y-739539D01*
X1086416Y-739990D01*
X1086375Y-740009D01*
X1086312Y-740028D01*
X1084732Y-740765D01*
X1084695Y-740791D01*
X1084636Y-740820D01*
X1083208Y-741820D01*
X1083177Y-741852D01*
X1083124Y-741891D01*
X1081891Y-743124D01*
X1081866Y-743160D01*
X1081820Y-743208D01*
X1080820Y-744636D01*
X1080802Y-744677D01*
X1080765Y-744732D01*
X1080028Y-746312D01*
X1080017Y-746355D01*
X1079990Y-746416D01*
X1079539Y-748099D01*
X1079536Y-748144D01*
X1079520Y-748208D01*
X1079368Y-749945D01*
X1079370Y-749969D01*
X1079366Y-750000D01*
X1079366Y-847426D01*
X1079373Y-847468D01*
X1079371Y-847510D01*
X1079393Y-847577D01*
X1079405Y-847647D01*
X1079427Y-847683D01*
X1079440Y-847724D01*
X1079494Y-847796D01*
X1079520Y-847840D01*
X1079536Y-847853D01*
X1079552Y-847874D01*
X1081199Y-849521D01*
X1082725Y-853206D01*
X1082725Y-857194D01*
X1081199Y-860879D01*
X1079552Y-862526D01*
X1079527Y-862560D01*
X1079496Y-862589D01*
X1079464Y-862652D01*
X1079423Y-862710D01*
X1079413Y-862751D01*
X1079393Y-862789D01*
X1079380Y-862878D01*
X1079368Y-862927D01*
X1079370Y-862948D01*
X1079366Y-862974D01*
X1079366Y-930000D01*
X1079370Y-930024D01*
X1079368Y-930055D01*
X1079520Y-931792D01*
X1079532Y-931835D01*
X1079536Y-931869D01*
X1079536Y-931885D01*
X1079538Y-931890D01*
X1079539Y-931901D01*
X1079990Y-933584D01*
X1080009Y-933625D01*
X1080028Y-933688D01*
X1080765Y-935268D01*
X1080791Y-935305D01*
X1080820Y-935364D01*
X1081820Y-936792D01*
X1081852Y-936823D01*
X1081891Y-936876D01*
X1083124Y-938109D01*
X1083160Y-938134D01*
X1083208Y-938180D01*
X1084636Y-939180D01*
X1084677Y-939198D01*
X1084732Y-939235D01*
X1086312Y-939972D01*
X1086355Y-939983D01*
X1086416Y-940010D01*
X1088099Y-940461D01*
X1088144Y-940464D01*
X1088208Y-940480D01*
X1089945Y-940632D01*
X1089969Y-940630D01*
X1090000Y-940634D01*
X1272639Y-940634D01*
X1272737Y-940617D01*
G37*
D10*
X57100Y-69800D03*
X120600Y-44400D03*
X247100Y-69800D03*
X310600Y-44400D03*
X437100Y-69800D03*
X500600Y-44400D03*
X627100Y-69800D03*
X690600Y-44400D03*
X817100Y-69800D03*
X880600Y-44400D03*
X1007100Y-69800D03*
X1070600Y-44400D03*
X1197100Y-69800D03*
X1260600Y-44400D03*
X1387100Y-69800D03*
X1450600Y-44400D03*
X1576900Y-69600D03*
X1640400Y-44200D03*
X1766600Y-69800D03*
X1830100Y-44400D03*
X1957100Y-70300D03*
X2020600Y-44900D03*
X2147100Y-70300D03*
X2210600Y-44900D03*
X2241900Y-70300D03*
X2305400Y-44900D03*
X2337100Y-70300D03*
X2400600Y-44900D03*
X2575700Y-69800D03*
X2639200Y-44400D03*
X2765700Y-69800D03*
X2829200Y-44400D03*
X2955700Y-69800D03*
X3019200Y-44400D03*
X104700Y-259700D03*
X168200Y-234300D03*
X342400Y-259800D03*
X405900Y-234400D03*
X532500Y-260000D03*
X596000Y-234600D03*
X722400Y-259800D03*
X785900Y-234400D03*
X912400Y-259800D03*
X975900Y-234400D03*
X1102400Y-259800D03*
X1165900Y-234400D03*
X1292400Y-259800D03*
X1355900Y-234400D03*
X1482400Y-259800D03*
X1545900Y-234400D03*
X1672400Y-259800D03*
X1735900Y-234400D03*
X1862600Y-259500D03*
X1926100Y-234100D03*
X2052900Y-260300D03*
X2116400Y-234900D03*
X2289500Y-260300D03*
X2353000Y-234900D03*
X2326100Y-419200D03*
X2300700Y-355700D03*
X2575700Y-259800D03*
X2639200Y-234400D03*
X2765700Y-259800D03*
X2829200Y-234400D03*
X2955700Y-259800D03*
X3019200Y-234400D03*
X128500Y-449800D03*
X192000Y-424400D03*
X80400Y-449500D03*
X143900Y-424100D03*
X389500Y-449800D03*
X453000Y-424400D03*
X579500Y-449800D03*
X643000Y-424400D03*
X769500Y-449800D03*
X833000Y-424400D03*
X960000Y-449800D03*
X1023500Y-424400D03*
X1150000Y-449800D03*
X1213500Y-424400D03*
X1340000Y-449800D03*
X1403500Y-424400D03*
X1530000Y-449800D03*
X1593500Y-424400D03*
X1720000Y-449800D03*
X1783500Y-424400D03*
X1910000Y-449800D03*
X1973500Y-424400D03*
X2099500Y-449800D03*
X2163000Y-424400D03*
X2218500Y-449800D03*
X2282000Y-424400D03*
X2313300Y-449800D03*
X2376800Y-424400D03*
X2575700Y-449800D03*
X2639200Y-424400D03*
X2765700Y-449800D03*
X2829200Y-424400D03*
X2955700Y-449800D03*
X3019200Y-424400D03*
X80900Y-639800D03*
X144400Y-614400D03*
X176200Y-639800D03*
X239700Y-614400D03*
X294700Y-639800D03*
X358200Y-614400D03*
X484700Y-639800D03*
X548200Y-614400D03*
X674700Y-639800D03*
X738200Y-614400D03*
X864700Y-639800D03*
X928200Y-614400D03*
X1054700Y-639800D03*
X1118200Y-614400D03*
X1244700Y-639800D03*
X1308200Y-614400D03*
X1435200Y-639800D03*
X1498700Y-614400D03*
X1625700Y-640300D03*
X1689200Y-614900D03*
X1816200Y-639800D03*
X1879700Y-614400D03*
X2053900Y-639800D03*
X2117400Y-614400D03*
X2575700Y-639800D03*
X2639200Y-614400D03*
X2765700Y-639800D03*
X2829200Y-614400D03*
X2955700Y-639800D03*
X3019200Y-614400D03*
X2338800Y-687600D03*
X2402300Y-662200D03*
X80900Y-829800D03*
X144400Y-804400D03*
X294700Y-829800D03*
X358200Y-804400D03*
X508500Y-830300D03*
X572000Y-804900D03*
X983800Y-829800D03*
X1047300Y-804400D03*
X888500Y-829800D03*
X952000Y-804400D03*
X1363300Y-829800D03*
X1426800Y-804400D03*
X1672400Y-830800D03*
X1735900Y-805400D03*
X1886700Y-830300D03*
X1950200Y-804900D03*
X2765700Y-829800D03*
X2829200Y-804400D03*
X2955700Y-829800D03*
X3019200Y-804400D03*
X2148600Y-877400D03*
X2212100Y-852000D03*
X2338600Y-877400D03*
X2402100Y-852000D03*
X2528600Y-877400D03*
X2592100Y-852000D03*
D11*
X1558500Y-811000D03*
X1558500Y-849000D03*
X1621500Y-811000D03*
X1621500Y-849000D03*
D12*
X1585700Y4000D03*
D13*
X1585800Y-37800D03*
D12*
X1499300Y4000D03*
D13*
X1499100Y-37800D03*
D14*
X1024000Y-212000D03*
D15*
X1024000Y-244295D02*
X932024Y-336271D01*
X1024000Y-244295D02*
X1024000Y-212000D01*
X932024Y-382442D02*
X895144Y-419322D01*
X932024Y-382442D02*
X932024Y-336271D01*
X895144Y-419322D02*
X895144Y-614178D01*
X930420Y-649454D01*
X930420Y-819959D01*
D14*
X970000Y-903438D03*
D15*
X954220Y-887658D01*
X954220Y-843759D01*
X930420Y-819959D01*
D14*
X886000Y-405500D03*
D15*
X886000Y-643905D01*
X879752Y-650153D01*
X904248Y-823277D02*
X904248Y-848323D01*
X903552Y-849019D01*
X879752Y-798781D02*
X879752Y-650153D01*
X879752Y-798781D02*
X904248Y-823277D01*
X903552Y-891846D02*
X910500Y-898794D01*
D14*
X910500Y-898794D03*
D15*
X903552Y-891846D02*
X903552Y-849019D01*
D14*
X1143000Y-748000D03*
X1243000Y-747000D03*
D15*
X1242000Y-748000D02*
X1143000Y-748000D01*
X1242000Y-748000D02*
X1243000Y-747000D01*
D14*
X1087000Y-824500D03*
D16*
X1087000Y-901000D01*
X1090500Y-904500D01*
D14*
X1090500Y-904500D03*
X1244500Y-906000D03*
D16*
X1236814Y-906000D01*
X1217040Y-925774D01*
X1111774Y-925774D01*
X1090500Y-904500D01*
X1231000Y-902000D02*
X1231000Y-861500D01*
X1235000Y-906000D02*
X1244500Y-906000D01*
X1235000Y-906000D02*
X1231000Y-902000D01*
X1245000Y-847500D02*
X1275500Y-847500D01*
X1245000Y-847500D02*
X1231000Y-861500D01*
D14*
X1275500Y-847500D03*
D16*
X1275500Y-818000D01*
X1330500Y-636000D02*
X1330500Y-576500D01*
X1293120Y-539120D01*
X1293120Y-396656D01*
X1394372Y-295404D02*
X1394372Y-279785D01*
X1373172Y-258585D01*
X1373172Y-112459D01*
X1394372Y-295404D02*
X1293120Y-396656D01*
X1313500Y-780000D02*
X1275500Y-818000D01*
X1313500Y-780000D02*
X1313500Y-653000D01*
X1330500Y-636000D01*
X1087000Y-802000D02*
X1087000Y-824500D01*
X1087000Y-802000D02*
X1128500Y-760500D01*
X1166500Y-760500D01*
X1169500Y-757500D01*
D14*
X1169500Y-757500D03*
D16*
X1373172Y-112459D02*
X1356000Y-95287D01*
X1356000Y-72000D01*
X1378880Y-49120D01*
X1414344Y-49120D02*
X1436344Y-71120D01*
X1414344Y-49120D02*
X1378880Y-49120D01*
X1440000Y-71120D02*
X1460000Y-71120D01*
X1465880Y-71120D01*
D15*
X1469620Y-71120D02*
X1478500Y-80000D01*
X1469620Y-71120D02*
X1460000Y-71120D01*
D14*
X1478500Y-80000D03*
D15*
X1558500Y-811000D02*
X1621500Y-811000D01*
X1642500Y-832000D01*
X1642500Y-858500D01*
X1595000Y-906000D01*
X1244500Y-906000D01*
D17*
X1450000Y-120000D03*
D18*
X1450788Y-84601D02*
X1438323Y-72136D01*
X1450788Y-84601D02*
X1450788Y-119212D01*
X1450000Y-120000D01*
X1439500Y-72136D02*
X1438323Y-72136D01*
X1499100Y-37800D02*
X1499100Y3800D01*
X1499300Y4000D01*
X1585700Y4000D01*
X1585800Y3900D01*
X1585800Y-37800D01*
D19*
X1440000Y-71120D02*
X1436344Y-71120D01*
D16*
X1437307Y-71120D01*
X1438323Y-72136D01*
D14*
X1122193Y-785932D03*
X1128500Y-897000D03*
X1213580Y-917420D03*
X1259500Y-827170D03*
D16*
X1253830Y-827170D01*
X1213580Y-867420D01*
X1213580Y-917420D01*
X1148920Y-917420D01*
X1128500Y-897000D01*
X1114693Y-883193D01*
X1114693Y-793432D01*
X1122193Y-785932D01*
X1259500Y-801500D02*
X1259500Y-827170D01*
X1259500Y-801500D02*
X1251500Y-793500D01*
X1251500Y-661750D01*
X1285500Y-627750D02*
X1285500Y-393500D01*
X1361000Y-318000D01*
X1361000Y-275500D01*
X1316000Y-230500D01*
X1316000Y-70000D01*
X1316000Y-69500D01*
X1285500Y-627750D02*
X1251500Y-661750D01*
X1316000Y-70000D02*
X1344500Y-41500D01*
X1417500Y-41500D01*
X1439500Y-63500D01*
D20*
X1473000Y-49500D03*
D16*
X1469926Y-49500D01*
X1455926Y-63500D01*
X1439500Y-63500D01*
D14*
X1618500Y-868000D03*
D15*
X1608966Y-868000D01*
X1590394Y-886572D01*
X1350106Y-886572D01*
X1334480Y-870946D01*
X1334480Y-769480D02*
X1323000Y-758000D01*
X1322824Y-758176D01*
X1321854Y-758176D01*
D14*
X1321854Y-758176D03*
X1304000Y-754500D03*
D15*
X1291947Y-749752D02*
X1272853Y-749752D01*
X1259352Y-763253D01*
X1259352Y-782347D01*
X1296695Y-754500D02*
X1304000Y-754500D01*
X1296695Y-754500D02*
X1291947Y-749752D01*
X1259352Y-782347D02*
X1259500Y-782495D01*
X1259500Y-801500D01*
X1334480Y-769480D02*
X1334480Y-870946D01*
D14*
X1342500Y-838500D03*
D15*
X1342500Y-846969D01*
X1339052Y-850417D01*
X1339052Y-869052D01*
X1588500Y-882000D02*
X1621500Y-849000D01*
X1352000Y-882000D02*
X1339052Y-869052D01*
X1352000Y-882000D02*
X1588500Y-882000D01*
X57152Y-69852D02*
X57100Y-69800D01*
X57152Y-69852D02*
X57152Y-214747D01*
X102105Y-259700D02*
X104700Y-259700D01*
X102105Y-259700D02*
X57152Y-214747D01*
X104700Y-259700D02*
X104700Y-425208D01*
X80400Y-449500D01*
X80700Y-449800D02*
X128500Y-449800D01*
X80700Y-449800D02*
X80400Y-449500D01*
X80400Y-481500D02*
X104252Y-505352D01*
X80400Y-481500D02*
X80400Y-449500D01*
X104252Y-505352D02*
X104252Y-559157D01*
X118348Y-573253D01*
X118348Y-602352D01*
X80900Y-639800D01*
X176200Y-639800D01*
X80900Y-639800D02*
X80900Y-723723D01*
X77002Y-727621D01*
X77002Y-825902D01*
X80900Y-829800D01*
X294700Y-829800D02*
X294700Y-639800D01*
X324917Y-273652D02*
X328548Y-273652D01*
X342400Y-259800D01*
X294700Y-303869D02*
X294700Y-639800D01*
X294700Y-303869D02*
X324917Y-273652D01*
X342400Y-259800D02*
X342400Y-257400D01*
X247100Y-162100D02*
X247100Y-69800D01*
X247100Y-162100D02*
X342400Y-257400D01*
X437100Y-164600D02*
X437100Y-69800D01*
X437100Y-164600D02*
X532500Y-260000D01*
X532500Y-306800D01*
X389500Y-449800D01*
X389500Y-544600D01*
X484700Y-639800D01*
X490000Y-645100D01*
X490000Y-811800D02*
X508500Y-830300D01*
X490000Y-811800D02*
X490000Y-645100D01*
X817100Y-164500D02*
X817100Y-69800D01*
X817100Y-164500D02*
X912400Y-259800D01*
X912400Y-306900D01*
X769500Y-449800D01*
X769500Y-544600D01*
X864700Y-639800D01*
X864700Y-806000D01*
X888500Y-829800D01*
X627152Y-69852D02*
X627100Y-69800D01*
X722205Y-259800D02*
X722400Y-259800D01*
X722205Y-259800D02*
X627152Y-164747D01*
X627152Y-69852D01*
X722400Y-259800D02*
X722400Y-306900D01*
X579500Y-449800D01*
X579500Y-544600D01*
X674700Y-639800D01*
X1197100Y-164500D02*
X1197100Y-69800D01*
X1197100Y-164500D02*
X1292400Y-259800D01*
X1292400Y-307400D01*
X1150000Y-449800D01*
X1150000Y-545100D01*
X1244700Y-639800D01*
X1007100Y-164500D02*
X1007100Y-69800D01*
X1007100Y-164500D02*
X1102400Y-259800D01*
X1102400Y-307400D01*
X960000Y-449800D01*
X960000Y-545100D01*
X1054700Y-639800D01*
X1054700Y-731105D01*
X1022552Y-791048D02*
X983800Y-829800D01*
X1022552Y-763253D02*
X1054700Y-731105D01*
X1022552Y-763253D02*
X1022552Y-791048D01*
X1387100Y-164500D02*
X1387100Y-69800D01*
X1387100Y-164500D02*
X1482400Y-259800D01*
X1482400Y-307400D01*
X1340000Y-449800D01*
X1340000Y-544600D01*
X1435200Y-639800D01*
X1435200Y-757900D01*
X1363300Y-829800D01*
X1576900Y-164300D02*
X1576900Y-69600D01*
X1576900Y-164300D02*
X1672400Y-259800D01*
X1672400Y-307400D01*
X1530000Y-449800D01*
X1530000Y-544600D01*
X1625700Y-640300D01*
X1625700Y-784100D01*
X1672400Y-830800D01*
X2955700Y-259800D02*
X2955700Y-69800D01*
X2955700Y-259800D02*
X2955700Y-449800D01*
X2955700Y-639800D01*
X2955700Y-829800D01*
X1957100Y-164500D02*
X1957100Y-70300D01*
X1957100Y-164500D02*
X2052900Y-260300D01*
X2052900Y-306900D01*
X1910000Y-449800D01*
X1910000Y-495900D01*
X2053900Y-639800D01*
X2053900Y-782700D01*
X2148600Y-877400D01*
X2765700Y-259800D02*
X2765700Y-69800D01*
X2765700Y-259800D02*
X2765700Y-449800D01*
X2765700Y-639800D01*
X2765700Y-829800D01*
X2575700Y-259800D02*
X2575700Y-69800D01*
X2575700Y-259800D02*
X2575700Y-449800D01*
X2575700Y-639800D01*
X2575700Y-830300D01*
X2528600Y-877400D01*
X1766600Y-163500D02*
X1766600Y-69800D01*
X1766600Y-163500D02*
X1862600Y-259500D01*
X1862600Y-307200D01*
X1720000Y-449800D01*
X1720000Y-543600D01*
X1816200Y-639800D01*
X1816200Y-759800D01*
X1886700Y-830300D01*
X2241900Y-70300D02*
X2337100Y-70300D01*
X2337100Y-408200D02*
X2326100Y-419200D01*
X2337100Y-85669D02*
X2337100Y-70300D01*
X2337100Y-85669D02*
X2342348Y-90917D01*
X2342348Y-100483D01*
X2337100Y-105731D01*
X2350648Y-276153D02*
X2350648Y-295247D01*
X2328452Y-390647D02*
X2337100Y-399295D01*
X2337100Y-408200D01*
X2337100Y-262605D02*
X2337100Y-105731D01*
X2337100Y-262605D02*
X2350648Y-276153D01*
X2350648Y-295247D02*
X2328452Y-317443D01*
X2328452Y-390647D01*
X2326100Y-419200D02*
X2326100Y-437000D01*
X2313300Y-449800D01*
X2218500Y-449800D02*
X2218500Y-567300D01*
X2338800Y-687600D01*
X2338800Y-877200D01*
X2338600Y-877400D01*
X2313300Y-449800D02*
X2218500Y-449800D01*
X2147100Y-117900D02*
X2147100Y-70300D01*
X2147100Y-117900D02*
X2268252Y-239052D01*
X2278647Y-239052D01*
X2289500Y-249905D01*
X2292148Y-252553D01*
X2102648Y-449800D02*
X2100000Y-449800D01*
X2099500Y-449800D01*
X2119302Y-397621D02*
X2130021Y-386902D01*
X2119302Y-433146D02*
X2102648Y-449800D01*
X2119302Y-433146D02*
X2119302Y-397621D01*
X2292148Y-270000D02*
X2292148Y-252553D01*
X2292148Y-270000D02*
X2292148Y-286683D01*
X2191929Y-386902D01*
X2130021Y-386902D01*
X2289500Y-260300D02*
X2289500Y-249905D01*
X2289500Y-260300D02*
X2289500Y-267352D01*
X2292148Y-270000D01*
D14*
X2154500Y-914000D03*
D15*
X2154500Y-893771D01*
X2164348Y-883923D01*
X2164348Y-616943D01*
X2100000Y-552595D01*
X2100000Y-449800D01*
D14*
X1572500Y-864500D03*
D15*
X1558500Y-850500D01*
X1558500Y-849000D01*
X2282000Y-424400D02*
X2300700Y-405700D01*
X2300700Y-355700D01*
X2305400Y-44900D02*
X2400600Y-44900D01*
M02*
