G04 EAGLE Gerber RS-274X export*
G75*
%MOMM*%
%FSLAX34Y34*%
%LPD*%
%INSilkscreen Top*%
%IPPOS*%
%AMOC8*
5,1,8,0,0,1.08239X$1,22.5*%
G01*
%ADD10C,0.127000*%
%ADD11C,0.076200*%


D10*
X25350Y-44400D02*
X25350Y-25350D01*
X44400Y-25350D01*
X146000Y-25350D02*
X165050Y-25350D01*
X165050Y-44400D01*
X165050Y-146000D02*
X165050Y-165050D01*
X146000Y-165050D01*
X44400Y-165050D02*
X25350Y-165050D01*
X25350Y-146000D01*
X215350Y-44400D02*
X215350Y-25350D01*
X234400Y-25350D01*
X336000Y-25350D02*
X355050Y-25350D01*
X355050Y-44400D01*
X355050Y-146000D02*
X355050Y-165050D01*
X336000Y-165050D01*
X234400Y-165050D02*
X215350Y-165050D01*
X215350Y-146000D01*
X405350Y-44400D02*
X405350Y-25350D01*
X424400Y-25350D01*
X526000Y-25350D02*
X545050Y-25350D01*
X545050Y-44400D01*
X545050Y-146000D02*
X545050Y-165050D01*
X526000Y-165050D01*
X424400Y-165050D02*
X405350Y-165050D01*
X405350Y-146000D01*
X595350Y-44400D02*
X595350Y-25350D01*
X614400Y-25350D01*
X716000Y-25350D02*
X735050Y-25350D01*
X735050Y-44400D01*
X735050Y-146000D02*
X735050Y-165050D01*
X716000Y-165050D01*
X614400Y-165050D02*
X595350Y-165050D01*
X595350Y-146000D01*
X785350Y-44400D02*
X785350Y-25350D01*
X804400Y-25350D01*
X906000Y-25350D02*
X925050Y-25350D01*
X925050Y-44400D01*
X925050Y-146000D02*
X925050Y-165050D01*
X906000Y-165050D01*
X804400Y-165050D02*
X785350Y-165050D01*
X785350Y-146000D01*
X975350Y-44400D02*
X975350Y-25350D01*
X994400Y-25350D01*
X1096000Y-25350D02*
X1115050Y-25350D01*
X1115050Y-44400D01*
X1115050Y-146000D02*
X1115050Y-165050D01*
X1096000Y-165050D01*
X994400Y-165050D02*
X975350Y-165050D01*
X975350Y-146000D01*
X1165350Y-44400D02*
X1165350Y-25350D01*
X1184400Y-25350D01*
X1286000Y-25350D02*
X1305050Y-25350D01*
X1305050Y-44400D01*
X1305050Y-146000D02*
X1305050Y-165050D01*
X1286000Y-165050D01*
X1184400Y-165050D02*
X1165350Y-165050D01*
X1165350Y-146000D01*
X1355350Y-44400D02*
X1355350Y-25350D01*
X1374400Y-25350D01*
X1476000Y-25350D02*
X1495050Y-25350D01*
X1495050Y-44400D01*
X1495050Y-146000D02*
X1495050Y-165050D01*
X1476000Y-165050D01*
X1374400Y-165050D02*
X1355350Y-165050D01*
X1355350Y-146000D01*
X1545150Y-44200D02*
X1545150Y-25150D01*
X1564200Y-25150D01*
X1665800Y-25150D02*
X1684850Y-25150D01*
X1684850Y-44200D01*
X1684850Y-145800D02*
X1684850Y-164850D01*
X1665800Y-164850D01*
X1564200Y-164850D02*
X1545150Y-164850D01*
X1545150Y-145800D01*
X1734850Y-44400D02*
X1734850Y-25350D01*
X1753900Y-25350D01*
X1855500Y-25350D02*
X1874550Y-25350D01*
X1874550Y-44400D01*
X1874550Y-146000D02*
X1874550Y-165050D01*
X1855500Y-165050D01*
X1753900Y-165050D02*
X1734850Y-165050D01*
X1734850Y-146000D01*
X1925350Y-44900D02*
X1925350Y-25850D01*
X1944400Y-25850D01*
X2046000Y-25850D02*
X2065050Y-25850D01*
X2065050Y-44900D01*
X2065050Y-146500D02*
X2065050Y-165550D01*
X2046000Y-165550D01*
X1944400Y-165550D02*
X1925350Y-165550D01*
X1925350Y-146500D01*
X2115350Y-44900D02*
X2115350Y-25850D01*
X2134400Y-25850D01*
X2236000Y-25850D02*
X2255050Y-25850D01*
X2255050Y-44900D01*
X2255050Y-146500D02*
X2255050Y-165550D01*
X2236000Y-165550D01*
X2134400Y-165550D02*
X2115350Y-165550D01*
X2115350Y-146500D01*
X2210150Y-25850D02*
X2229200Y-25850D01*
X2210150Y-25850D02*
X2210150Y-44900D01*
X2330800Y-25850D02*
X2349850Y-25850D01*
X2349850Y-44900D01*
X2349850Y-146500D02*
X2349850Y-165550D01*
X2330800Y-165550D01*
X2229200Y-165550D02*
X2210150Y-165550D01*
X2210150Y-146500D01*
X2305350Y-44900D02*
X2305350Y-25850D01*
X2324400Y-25850D01*
X2426000Y-25850D02*
X2445050Y-25850D01*
X2445050Y-44900D01*
X2445050Y-146500D02*
X2445050Y-165550D01*
X2426000Y-165550D01*
X2324400Y-165550D02*
X2305350Y-165550D01*
X2305350Y-146500D01*
X2543950Y-44400D02*
X2543950Y-25350D01*
X2563000Y-25350D01*
X2664600Y-25350D02*
X2683650Y-25350D01*
X2683650Y-44400D01*
X2683650Y-146000D02*
X2683650Y-165050D01*
X2664600Y-165050D01*
X2563000Y-165050D02*
X2543950Y-165050D01*
X2543950Y-146000D01*
X2733950Y-44400D02*
X2733950Y-25350D01*
X2753000Y-25350D01*
X2854600Y-25350D02*
X2873650Y-25350D01*
X2873650Y-44400D01*
X2873650Y-146000D02*
X2873650Y-165050D01*
X2854600Y-165050D01*
X2753000Y-165050D02*
X2733950Y-165050D01*
X2733950Y-146000D01*
X2923950Y-44400D02*
X2923950Y-25350D01*
X2943000Y-25350D01*
X3044600Y-25350D02*
X3063650Y-25350D01*
X3063650Y-44400D01*
X3063650Y-146000D02*
X3063650Y-165050D01*
X3044600Y-165050D01*
X2943000Y-165050D02*
X2923950Y-165050D01*
X2923950Y-146000D01*
X72950Y-215250D02*
X72950Y-234300D01*
X72950Y-215250D02*
X92000Y-215250D01*
X193600Y-215250D02*
X212650Y-215250D01*
X212650Y-234300D01*
X212650Y-335900D02*
X212650Y-354950D01*
X193600Y-354950D01*
X92000Y-354950D02*
X72950Y-354950D01*
X72950Y-335900D01*
X310650Y-234400D02*
X310650Y-215350D01*
X329700Y-215350D01*
X431300Y-215350D02*
X450350Y-215350D01*
X450350Y-234400D01*
X450350Y-336000D02*
X450350Y-355050D01*
X431300Y-355050D01*
X329700Y-355050D02*
X310650Y-355050D01*
X310650Y-336000D01*
X500750Y-234600D02*
X500750Y-215550D01*
X519800Y-215550D01*
X621400Y-215550D02*
X640450Y-215550D01*
X640450Y-234600D01*
X640450Y-336200D02*
X640450Y-355250D01*
X621400Y-355250D01*
X519800Y-355250D02*
X500750Y-355250D01*
X500750Y-336200D01*
X690650Y-234400D02*
X690650Y-215350D01*
X709700Y-215350D01*
X811300Y-215350D02*
X830350Y-215350D01*
X830350Y-234400D01*
X830350Y-336000D02*
X830350Y-355050D01*
X811300Y-355050D01*
X709700Y-355050D02*
X690650Y-355050D01*
X690650Y-336000D01*
X880650Y-234400D02*
X880650Y-215350D01*
X899700Y-215350D01*
X1001300Y-215350D02*
X1020350Y-215350D01*
X1020350Y-234400D01*
X1020350Y-336000D02*
X1020350Y-355050D01*
X1001300Y-355050D01*
X899700Y-355050D02*
X880650Y-355050D01*
X880650Y-336000D01*
X1070650Y-234400D02*
X1070650Y-215350D01*
X1089700Y-215350D01*
X1191300Y-215350D02*
X1210350Y-215350D01*
X1210350Y-234400D01*
X1210350Y-336000D02*
X1210350Y-355050D01*
X1191300Y-355050D01*
X1089700Y-355050D02*
X1070650Y-355050D01*
X1070650Y-336000D01*
X1260650Y-234400D02*
X1260650Y-215350D01*
X1279700Y-215350D01*
X1381300Y-215350D02*
X1400350Y-215350D01*
X1400350Y-234400D01*
X1400350Y-336000D02*
X1400350Y-355050D01*
X1381300Y-355050D01*
X1279700Y-355050D02*
X1260650Y-355050D01*
X1260650Y-336000D01*
X1450650Y-234400D02*
X1450650Y-215350D01*
X1469700Y-215350D01*
X1571300Y-215350D02*
X1590350Y-215350D01*
X1590350Y-234400D01*
X1590350Y-336000D02*
X1590350Y-355050D01*
X1571300Y-355050D01*
X1469700Y-355050D02*
X1450650Y-355050D01*
X1450650Y-336000D01*
X1640650Y-234400D02*
X1640650Y-215350D01*
X1659700Y-215350D01*
X1761300Y-215350D02*
X1780350Y-215350D01*
X1780350Y-234400D01*
X1780350Y-336000D02*
X1780350Y-355050D01*
X1761300Y-355050D01*
X1659700Y-355050D02*
X1640650Y-355050D01*
X1640650Y-336000D01*
X1830850Y-234100D02*
X1830850Y-215050D01*
X1849900Y-215050D01*
X1951500Y-215050D02*
X1970550Y-215050D01*
X1970550Y-234100D01*
X1970550Y-335700D02*
X1970550Y-354750D01*
X1951500Y-354750D01*
X1849900Y-354750D02*
X1830850Y-354750D01*
X1830850Y-335700D01*
X2021150Y-234900D02*
X2021150Y-215850D01*
X2040200Y-215850D01*
X2141800Y-215850D02*
X2160850Y-215850D01*
X2160850Y-234900D01*
X2160850Y-336500D02*
X2160850Y-355550D01*
X2141800Y-355550D01*
X2040200Y-355550D02*
X2021150Y-355550D01*
X2021150Y-336500D01*
X2257750Y-234900D02*
X2257750Y-215850D01*
X2276800Y-215850D01*
X2378400Y-215850D02*
X2397450Y-215850D01*
X2397450Y-234900D01*
X2397450Y-336500D02*
X2397450Y-355550D01*
X2378400Y-355550D01*
X2276800Y-355550D02*
X2257750Y-355550D01*
X2257750Y-336500D01*
X2281650Y-431900D02*
X2281650Y-450950D01*
X2301970Y-450950D01*
X2402300Y-450950D02*
X2421350Y-450950D01*
X2421350Y-431900D01*
X2421350Y-329030D02*
X2421350Y-311250D01*
X2403570Y-311250D01*
X2300700Y-311250D02*
X2281650Y-311250D01*
X2281650Y-330300D01*
X2543950Y-234400D02*
X2543950Y-215350D01*
X2563000Y-215350D01*
X2664600Y-215350D02*
X2683650Y-215350D01*
X2683650Y-234400D01*
X2683650Y-336000D02*
X2683650Y-355050D01*
X2664600Y-355050D01*
X2563000Y-355050D02*
X2543950Y-355050D01*
X2543950Y-336000D01*
X2733950Y-234400D02*
X2733950Y-215350D01*
X2753000Y-215350D01*
X2854600Y-215350D02*
X2873650Y-215350D01*
X2873650Y-234400D01*
X2873650Y-336000D02*
X2873650Y-355050D01*
X2854600Y-355050D01*
X2753000Y-355050D02*
X2733950Y-355050D01*
X2733950Y-336000D01*
X2923950Y-234400D02*
X2923950Y-215350D01*
X2943000Y-215350D01*
X3044600Y-215350D02*
X3063650Y-215350D01*
X3063650Y-234400D01*
X3063650Y-336000D02*
X3063650Y-355050D01*
X3044600Y-355050D01*
X2943000Y-355050D02*
X2923950Y-355050D01*
X2923950Y-336000D01*
X96750Y-405350D02*
X96750Y-424400D01*
X96750Y-405350D02*
X115800Y-405350D01*
X217400Y-405350D02*
X236450Y-405350D01*
X236450Y-424400D01*
X236450Y-526000D02*
X236450Y-545050D01*
X217400Y-545050D01*
X115800Y-545050D02*
X96750Y-545050D01*
X96750Y-526000D01*
X48650Y-424100D02*
X48650Y-405050D01*
X67700Y-405050D01*
X169300Y-405050D02*
X188350Y-405050D01*
X188350Y-424100D01*
X188350Y-525700D02*
X188350Y-544750D01*
X169300Y-544750D01*
X67700Y-544750D02*
X48650Y-544750D01*
X48650Y-525700D01*
X357750Y-424400D02*
X357750Y-405350D01*
X376800Y-405350D01*
X478400Y-405350D02*
X497450Y-405350D01*
X497450Y-424400D01*
X497450Y-526000D02*
X497450Y-545050D01*
X478400Y-545050D01*
X376800Y-545050D02*
X357750Y-545050D01*
X357750Y-526000D01*
X547750Y-424400D02*
X547750Y-405350D01*
X566800Y-405350D01*
X668400Y-405350D02*
X687450Y-405350D01*
X687450Y-424400D01*
X687450Y-526000D02*
X687450Y-545050D01*
X668400Y-545050D01*
X566800Y-545050D02*
X547750Y-545050D01*
X547750Y-526000D01*
X737750Y-424400D02*
X737750Y-405350D01*
X756800Y-405350D01*
X858400Y-405350D02*
X877450Y-405350D01*
X877450Y-424400D01*
X877450Y-526000D02*
X877450Y-545050D01*
X858400Y-545050D01*
X756800Y-545050D02*
X737750Y-545050D01*
X737750Y-526000D01*
X928250Y-424400D02*
X928250Y-405350D01*
X947300Y-405350D01*
X1048900Y-405350D02*
X1067950Y-405350D01*
X1067950Y-424400D01*
X1067950Y-526000D02*
X1067950Y-545050D01*
X1048900Y-545050D01*
X947300Y-545050D02*
X928250Y-545050D01*
X928250Y-526000D01*
X1118250Y-424400D02*
X1118250Y-405350D01*
X1137300Y-405350D01*
X1238900Y-405350D02*
X1257950Y-405350D01*
X1257950Y-424400D01*
X1257950Y-526000D02*
X1257950Y-545050D01*
X1238900Y-545050D01*
X1137300Y-545050D02*
X1118250Y-545050D01*
X1118250Y-526000D01*
X1308250Y-424400D02*
X1308250Y-405350D01*
X1327300Y-405350D01*
X1428900Y-405350D02*
X1447950Y-405350D01*
X1447950Y-424400D01*
X1447950Y-526000D02*
X1447950Y-545050D01*
X1428900Y-545050D01*
X1327300Y-545050D02*
X1308250Y-545050D01*
X1308250Y-526000D01*
X1498250Y-424400D02*
X1498250Y-405350D01*
X1517300Y-405350D01*
X1618900Y-405350D02*
X1637950Y-405350D01*
X1637950Y-424400D01*
X1637950Y-526000D02*
X1637950Y-545050D01*
X1618900Y-545050D01*
X1517300Y-545050D02*
X1498250Y-545050D01*
X1498250Y-526000D01*
X1688250Y-424400D02*
X1688250Y-405350D01*
X1707300Y-405350D01*
X1808900Y-405350D02*
X1827950Y-405350D01*
X1827950Y-424400D01*
X1827950Y-526000D02*
X1827950Y-545050D01*
X1808900Y-545050D01*
X1707300Y-545050D02*
X1688250Y-545050D01*
X1688250Y-526000D01*
X1878250Y-424400D02*
X1878250Y-405350D01*
X1897300Y-405350D01*
X1998900Y-405350D02*
X2017950Y-405350D01*
X2017950Y-424400D01*
X2017950Y-526000D02*
X2017950Y-545050D01*
X1998900Y-545050D01*
X1897300Y-545050D02*
X1878250Y-545050D01*
X1878250Y-526000D01*
X2067750Y-424400D02*
X2067750Y-405350D01*
X2086800Y-405350D01*
X2188400Y-405350D02*
X2207450Y-405350D01*
X2207450Y-424400D01*
X2207450Y-526000D02*
X2207450Y-545050D01*
X2188400Y-545050D01*
X2086800Y-545050D02*
X2067750Y-545050D01*
X2067750Y-526000D01*
X2186750Y-405350D02*
X2205800Y-405350D01*
X2186750Y-405350D02*
X2186750Y-424400D01*
X2307400Y-405350D02*
X2326450Y-405350D01*
X2326450Y-424400D01*
X2326450Y-526000D02*
X2326450Y-545050D01*
X2307400Y-545050D01*
X2205800Y-545050D02*
X2186750Y-545050D01*
X2186750Y-526000D01*
X2281550Y-424400D02*
X2281550Y-405350D01*
X2300600Y-405350D01*
X2402200Y-405350D02*
X2421250Y-405350D01*
X2421250Y-424400D01*
X2421250Y-526000D02*
X2421250Y-545050D01*
X2402200Y-545050D01*
X2300600Y-545050D02*
X2281550Y-545050D01*
X2281550Y-526000D01*
X2543950Y-424400D02*
X2543950Y-405350D01*
X2563000Y-405350D01*
X2664600Y-405350D02*
X2683650Y-405350D01*
X2683650Y-424400D01*
X2683650Y-526000D02*
X2683650Y-545050D01*
X2664600Y-545050D01*
X2563000Y-545050D02*
X2543950Y-545050D01*
X2543950Y-526000D01*
X2733950Y-424400D02*
X2733950Y-405350D01*
X2753000Y-405350D01*
X2854600Y-405350D02*
X2873650Y-405350D01*
X2873650Y-424400D01*
X2873650Y-526000D02*
X2873650Y-545050D01*
X2854600Y-545050D01*
X2753000Y-545050D02*
X2733950Y-545050D01*
X2733950Y-526000D01*
X2923950Y-424400D02*
X2923950Y-405350D01*
X2943000Y-405350D01*
X3044600Y-405350D02*
X3063650Y-405350D01*
X3063650Y-424400D01*
X3063650Y-526000D02*
X3063650Y-545050D01*
X3044600Y-545050D01*
X2943000Y-545050D02*
X2923950Y-545050D01*
X2923950Y-526000D01*
X49150Y-595350D02*
X49150Y-614400D01*
X49150Y-595350D02*
X68200Y-595350D01*
X169800Y-595350D02*
X188850Y-595350D01*
X188850Y-614400D01*
X188850Y-716000D02*
X188850Y-735050D01*
X169800Y-735050D01*
X68200Y-735050D02*
X49150Y-735050D01*
X49150Y-716000D01*
X144450Y-595350D02*
X163500Y-595350D01*
X144450Y-595350D02*
X144450Y-614400D01*
X265100Y-595350D02*
X284150Y-595350D01*
X284150Y-614400D01*
X284150Y-716000D02*
X284150Y-735050D01*
X265100Y-735050D01*
X163500Y-735050D02*
X144450Y-735050D01*
X144450Y-716000D01*
X262950Y-614400D02*
X262950Y-595350D01*
X282000Y-595350D01*
X383600Y-595350D02*
X402650Y-595350D01*
X402650Y-614400D01*
X402650Y-716000D02*
X402650Y-735050D01*
X383600Y-735050D01*
X282000Y-735050D02*
X262950Y-735050D01*
X262950Y-716000D01*
X452950Y-614400D02*
X452950Y-595350D01*
X472000Y-595350D01*
X573600Y-595350D02*
X592650Y-595350D01*
X592650Y-614400D01*
X592650Y-716000D02*
X592650Y-735050D01*
X573600Y-735050D01*
X472000Y-735050D02*
X452950Y-735050D01*
X452950Y-716000D01*
X642950Y-614400D02*
X642950Y-595350D01*
X662000Y-595350D01*
X763600Y-595350D02*
X782650Y-595350D01*
X782650Y-614400D01*
X782650Y-716000D02*
X782650Y-735050D01*
X763600Y-735050D01*
X662000Y-735050D02*
X642950Y-735050D01*
X642950Y-716000D01*
X832950Y-614400D02*
X832950Y-595350D01*
X852000Y-595350D01*
X953600Y-595350D02*
X972650Y-595350D01*
X972650Y-614400D01*
X972650Y-716000D02*
X972650Y-735050D01*
X953600Y-735050D01*
X852000Y-735050D02*
X832950Y-735050D01*
X832950Y-716000D01*
X1022950Y-614400D02*
X1022950Y-595350D01*
X1042000Y-595350D01*
X1143600Y-595350D02*
X1162650Y-595350D01*
X1162650Y-614400D01*
X1162650Y-716000D02*
X1162650Y-735050D01*
X1143600Y-735050D01*
X1042000Y-735050D02*
X1022950Y-735050D01*
X1022950Y-716000D01*
X1212950Y-614400D02*
X1212950Y-595350D01*
X1232000Y-595350D01*
X1333600Y-595350D02*
X1352650Y-595350D01*
X1352650Y-614400D01*
X1352650Y-716000D02*
X1352650Y-735050D01*
X1333600Y-735050D01*
X1232000Y-735050D02*
X1212950Y-735050D01*
X1212950Y-716000D01*
X1403450Y-614400D02*
X1403450Y-595350D01*
X1422500Y-595350D01*
X1524100Y-595350D02*
X1543150Y-595350D01*
X1543150Y-614400D01*
X1543150Y-716000D02*
X1543150Y-735050D01*
X1524100Y-735050D01*
X1422500Y-735050D02*
X1403450Y-735050D01*
X1403450Y-716000D01*
X1593950Y-614900D02*
X1593950Y-595850D01*
X1613000Y-595850D01*
X1714600Y-595850D02*
X1733650Y-595850D01*
X1733650Y-614900D01*
X1733650Y-716500D02*
X1733650Y-735550D01*
X1714600Y-735550D01*
X1613000Y-735550D02*
X1593950Y-735550D01*
X1593950Y-716500D01*
X1784450Y-614400D02*
X1784450Y-595350D01*
X1803500Y-595350D01*
X1905100Y-595350D02*
X1924150Y-595350D01*
X1924150Y-614400D01*
X1924150Y-716000D02*
X1924150Y-735050D01*
X1905100Y-735050D01*
X1803500Y-735050D02*
X1784450Y-735050D01*
X1784450Y-716000D01*
X2022150Y-614400D02*
X2022150Y-595350D01*
X2041200Y-595350D01*
X2142800Y-595350D02*
X2161850Y-595350D01*
X2161850Y-614400D01*
X2161850Y-716000D02*
X2161850Y-735050D01*
X2142800Y-735050D01*
X2041200Y-735050D02*
X2022150Y-735050D01*
X2022150Y-716000D01*
X2543950Y-614400D02*
X2543950Y-595350D01*
X2563000Y-595350D01*
X2664600Y-595350D02*
X2683650Y-595350D01*
X2683650Y-614400D01*
X2683650Y-716000D02*
X2683650Y-735050D01*
X2664600Y-735050D01*
X2563000Y-735050D02*
X2543950Y-735050D01*
X2543950Y-716000D01*
X2733950Y-614400D02*
X2733950Y-595350D01*
X2753000Y-595350D01*
X2854600Y-595350D02*
X2873650Y-595350D01*
X2873650Y-614400D01*
X2873650Y-716000D02*
X2873650Y-735050D01*
X2854600Y-735050D01*
X2753000Y-735050D02*
X2733950Y-735050D01*
X2733950Y-716000D01*
X2923950Y-614400D02*
X2923950Y-595350D01*
X2943000Y-595350D01*
X3044600Y-595350D02*
X3063650Y-595350D01*
X3063650Y-614400D01*
X3063650Y-716000D02*
X3063650Y-735050D01*
X3044600Y-735050D01*
X2943000Y-735050D02*
X2923950Y-735050D01*
X2923950Y-716000D01*
X2307050Y-662200D02*
X2307050Y-643150D01*
X2326100Y-643150D01*
X2427700Y-643150D02*
X2446750Y-643150D01*
X2446750Y-662200D01*
X2446750Y-763800D02*
X2446750Y-782850D01*
X2427700Y-782850D01*
X2326100Y-782850D02*
X2307050Y-782850D01*
X2307050Y-763800D01*
X49150Y-785350D02*
X49150Y-804400D01*
X49150Y-785350D02*
X68200Y-785350D01*
X169800Y-785350D02*
X188850Y-785350D01*
X188850Y-804400D01*
X188850Y-906000D02*
X188850Y-925050D01*
X169800Y-925050D01*
X68200Y-925050D02*
X49150Y-925050D01*
X49150Y-906000D01*
X262950Y-804400D02*
X262950Y-785350D01*
X282000Y-785350D01*
X383600Y-785350D02*
X402650Y-785350D01*
X402650Y-804400D01*
X402650Y-906000D02*
X402650Y-925050D01*
X383600Y-925050D01*
X282000Y-925050D02*
X262950Y-925050D01*
X262950Y-906000D01*
X476750Y-804900D02*
X476750Y-785850D01*
X495800Y-785850D01*
X597400Y-785850D02*
X616450Y-785850D01*
X616450Y-804900D01*
X616450Y-906500D02*
X616450Y-925550D01*
X597400Y-925550D01*
X495800Y-925550D02*
X476750Y-925550D01*
X476750Y-906500D01*
X952050Y-785350D02*
X971100Y-785350D01*
X952050Y-785350D02*
X952050Y-804400D01*
X1072700Y-785350D02*
X1091750Y-785350D01*
X1091750Y-804400D01*
X1091750Y-906000D02*
X1091750Y-925050D01*
X1072700Y-925050D01*
X971100Y-925050D02*
X952050Y-925050D01*
X952050Y-906000D01*
X875800Y-785350D02*
X856750Y-785350D01*
X856750Y-805670D01*
X856750Y-906000D02*
X856750Y-925050D01*
X875800Y-925050D01*
X978670Y-925050D02*
X996450Y-925050D01*
X996450Y-907270D01*
X996450Y-804400D02*
X996450Y-785350D01*
X977400Y-785350D01*
X1331550Y-785350D02*
X1350600Y-785350D01*
X1331550Y-785350D02*
X1331550Y-805670D01*
X1331550Y-906000D02*
X1331550Y-925050D01*
X1350600Y-925050D01*
X1453470Y-925050D02*
X1471250Y-925050D01*
X1471250Y-907270D01*
X1471250Y-804400D02*
X1471250Y-785350D01*
X1452200Y-785350D01*
X1640650Y-786350D02*
X1640650Y-805400D01*
X1640650Y-786350D02*
X1659700Y-786350D01*
X1761300Y-786350D02*
X1780350Y-786350D01*
X1780350Y-805400D01*
X1780350Y-907000D02*
X1780350Y-926050D01*
X1761300Y-926050D01*
X1659700Y-926050D02*
X1640650Y-926050D01*
X1640650Y-907000D01*
X1854950Y-804900D02*
X1854950Y-785850D01*
X1874000Y-785850D01*
X1975600Y-785850D02*
X1994650Y-785850D01*
X1994650Y-804900D01*
X1994650Y-906500D02*
X1994650Y-925550D01*
X1975600Y-925550D01*
X1874000Y-925550D02*
X1854950Y-925550D01*
X1854950Y-906500D01*
X2733950Y-804400D02*
X2733950Y-785350D01*
X2753000Y-785350D01*
X2854600Y-785350D02*
X2873650Y-785350D01*
X2873650Y-804400D01*
X2873650Y-906000D02*
X2873650Y-925050D01*
X2854600Y-925050D01*
X2753000Y-925050D02*
X2733950Y-925050D01*
X2733950Y-906000D01*
X2923950Y-804400D02*
X2923950Y-785350D01*
X2943000Y-785350D01*
X3044600Y-785350D02*
X3063650Y-785350D01*
X3063650Y-804400D01*
X3063650Y-906000D02*
X3063650Y-925050D01*
X3044600Y-925050D01*
X2943000Y-925050D02*
X2923950Y-925050D01*
X2923950Y-906000D01*
X2116850Y-852000D02*
X2116850Y-832950D01*
X2135900Y-832950D01*
X2237500Y-832950D02*
X2256550Y-832950D01*
X2256550Y-852000D01*
X2256550Y-953600D02*
X2256550Y-972650D01*
X2237500Y-972650D01*
X2135900Y-972650D02*
X2116850Y-972650D01*
X2116850Y-953600D01*
X2306850Y-852000D02*
X2306850Y-832950D01*
X2325900Y-832950D01*
X2427500Y-832950D02*
X2446550Y-832950D01*
X2446550Y-852000D01*
X2446550Y-953600D02*
X2446550Y-972650D01*
X2427500Y-972650D01*
X2325900Y-972650D02*
X2306850Y-972650D01*
X2306850Y-953600D01*
X2496850Y-852000D02*
X2496850Y-832950D01*
X2515900Y-832950D01*
X2617500Y-832950D02*
X2636550Y-832950D01*
X2636550Y-852000D01*
X2636550Y-953600D02*
X2636550Y-972650D01*
X2617500Y-972650D01*
X2515900Y-972650D02*
X2496850Y-972650D01*
X2496850Y-953600D01*
D11*
X1554430Y-787931D02*
X1554428Y-788009D01*
X1554423Y-788087D01*
X1554413Y-788164D01*
X1554400Y-788241D01*
X1554384Y-788317D01*
X1554364Y-788393D01*
X1554340Y-788467D01*
X1554313Y-788540D01*
X1554282Y-788612D01*
X1554248Y-788682D01*
X1554210Y-788751D01*
X1554170Y-788817D01*
X1554126Y-788882D01*
X1554079Y-788944D01*
X1554030Y-789004D01*
X1553977Y-789062D01*
X1553922Y-789117D01*
X1553864Y-789170D01*
X1553804Y-789219D01*
X1553742Y-789266D01*
X1553677Y-789310D01*
X1553611Y-789350D01*
X1553542Y-789388D01*
X1553472Y-789422D01*
X1553400Y-789453D01*
X1553327Y-789480D01*
X1553253Y-789504D01*
X1553177Y-789524D01*
X1553101Y-789540D01*
X1553024Y-789553D01*
X1552947Y-789563D01*
X1552869Y-789568D01*
X1552791Y-789570D01*
X1552677Y-789568D01*
X1552563Y-789563D01*
X1552450Y-789553D01*
X1552337Y-789540D01*
X1552224Y-789523D01*
X1552112Y-789503D01*
X1552001Y-789479D01*
X1551890Y-789451D01*
X1551781Y-789419D01*
X1551672Y-789384D01*
X1551565Y-789346D01*
X1551459Y-789304D01*
X1551355Y-789258D01*
X1551252Y-789209D01*
X1551151Y-789157D01*
X1551051Y-789101D01*
X1550954Y-789042D01*
X1550858Y-788980D01*
X1550765Y-788915D01*
X1550673Y-788847D01*
X1550584Y-788776D01*
X1550498Y-788702D01*
X1550414Y-788625D01*
X1550332Y-788545D01*
X1550537Y-783833D02*
X1550539Y-783753D01*
X1550545Y-783672D01*
X1550555Y-783593D01*
X1550568Y-783513D01*
X1550586Y-783435D01*
X1550608Y-783357D01*
X1550633Y-783281D01*
X1550662Y-783206D01*
X1550694Y-783132D01*
X1550731Y-783060D01*
X1550770Y-782990D01*
X1550813Y-782922D01*
X1550860Y-782857D01*
X1550909Y-782793D01*
X1550962Y-782732D01*
X1551017Y-782674D01*
X1551075Y-782619D01*
X1551136Y-782566D01*
X1551200Y-782517D01*
X1551265Y-782470D01*
X1551333Y-782427D01*
X1551403Y-782388D01*
X1551475Y-782351D01*
X1551549Y-782319D01*
X1551624Y-782290D01*
X1551700Y-782265D01*
X1551778Y-782243D01*
X1551856Y-782225D01*
X1551935Y-782212D01*
X1552015Y-782202D01*
X1552096Y-782196D01*
X1552176Y-782194D01*
X1552286Y-782196D01*
X1552395Y-782202D01*
X1552505Y-782212D01*
X1552614Y-782225D01*
X1552722Y-782243D01*
X1552830Y-782264D01*
X1552937Y-782290D01*
X1553043Y-782319D01*
X1553148Y-782352D01*
X1553251Y-782388D01*
X1553354Y-782429D01*
X1553454Y-782472D01*
X1553553Y-782520D01*
X1553651Y-782571D01*
X1553746Y-782625D01*
X1553840Y-782683D01*
X1553931Y-782744D01*
X1554020Y-782809D01*
X1551357Y-785267D02*
X1551290Y-785226D01*
X1551225Y-785181D01*
X1551163Y-785134D01*
X1551103Y-785083D01*
X1551045Y-785030D01*
X1550990Y-784974D01*
X1550937Y-784916D01*
X1550887Y-784855D01*
X1550841Y-784792D01*
X1550797Y-784726D01*
X1550756Y-784659D01*
X1550719Y-784590D01*
X1550685Y-784519D01*
X1550654Y-784447D01*
X1550627Y-784373D01*
X1550603Y-784298D01*
X1550583Y-784222D01*
X1550567Y-784145D01*
X1550554Y-784068D01*
X1550544Y-783990D01*
X1550539Y-783912D01*
X1550537Y-783833D01*
X1553610Y-786497D02*
X1553677Y-786538D01*
X1553742Y-786583D01*
X1553804Y-786630D01*
X1553864Y-786681D01*
X1553922Y-786734D01*
X1553977Y-786790D01*
X1554030Y-786848D01*
X1554080Y-786909D01*
X1554126Y-786972D01*
X1554170Y-787038D01*
X1554211Y-787105D01*
X1554248Y-787174D01*
X1554282Y-787245D01*
X1554313Y-787317D01*
X1554340Y-787391D01*
X1554364Y-787466D01*
X1554384Y-787542D01*
X1554400Y-787619D01*
X1554413Y-787696D01*
X1554423Y-787774D01*
X1554428Y-787852D01*
X1554430Y-787931D01*
X1553610Y-786497D02*
X1551357Y-785267D01*
X1557159Y-782194D02*
X1558798Y-789570D01*
X1560437Y-784653D01*
X1562077Y-789570D01*
X1563716Y-782194D01*
X1566689Y-783833D02*
X1568738Y-782194D01*
X1568738Y-789570D01*
X1566689Y-789570D02*
X1570787Y-789570D01*
M02*
