G04 EAGLE Gerber RS-274X export*
G75*
%MOMM*%
%FSLAX34Y34*%
%LPD*%
%INSoldermask Top*%
%IPPOS*%
%AMOC8*
5,1,8,0,0,1.08239X$1,22.5*%
G01*
%ADD10C,4.203200*%
%ADD11C,1.903200*%
%ADD12C,2.743200*%
%ADD13C,3.253200*%
%ADD14R,1.903200X1.203200*%
%ADD15C,1.711200*%
%ADD16C,1.853200*%
%ADD17C,0.953200*%
%ADD18C,0.959600*%
%ADD19C,1.409600*%
%ADD20C,1.209600*%


D10*
X95200Y-95200D03*
D11*
X44400Y-95200D03*
X146000Y-95200D03*
D12*
X57100Y-69800D03*
X120600Y-44400D03*
D10*
X285200Y-95200D03*
D11*
X234400Y-95200D03*
X336000Y-95200D03*
D12*
X247100Y-69800D03*
X310600Y-44400D03*
D10*
X475200Y-95200D03*
D11*
X424400Y-95200D03*
X526000Y-95200D03*
D12*
X437100Y-69800D03*
X500600Y-44400D03*
D10*
X665200Y-95200D03*
D11*
X614400Y-95200D03*
X716000Y-95200D03*
D12*
X627100Y-69800D03*
X690600Y-44400D03*
D10*
X855200Y-95200D03*
D11*
X804400Y-95200D03*
X906000Y-95200D03*
D12*
X817100Y-69800D03*
X880600Y-44400D03*
D10*
X1045200Y-95200D03*
D11*
X994400Y-95200D03*
X1096000Y-95200D03*
D12*
X1007100Y-69800D03*
X1070600Y-44400D03*
D10*
X1235200Y-95200D03*
D11*
X1184400Y-95200D03*
X1286000Y-95200D03*
D12*
X1197100Y-69800D03*
X1260600Y-44400D03*
D10*
X1425200Y-95200D03*
D11*
X1374400Y-95200D03*
X1476000Y-95200D03*
D12*
X1387100Y-69800D03*
X1450600Y-44400D03*
D10*
X1615000Y-95000D03*
D11*
X1564200Y-95000D03*
X1665800Y-95000D03*
D12*
X1576900Y-69600D03*
X1640400Y-44200D03*
D10*
X1804700Y-95200D03*
D11*
X1753900Y-95200D03*
X1855500Y-95200D03*
D12*
X1766600Y-69800D03*
X1830100Y-44400D03*
D10*
X1995200Y-95700D03*
D11*
X1944400Y-95700D03*
X2046000Y-95700D03*
D12*
X1957100Y-70300D03*
X2020600Y-44900D03*
D10*
X2185200Y-95700D03*
D11*
X2134400Y-95700D03*
X2236000Y-95700D03*
D12*
X2147100Y-70300D03*
X2210600Y-44900D03*
D10*
X2280000Y-95700D03*
D11*
X2229200Y-95700D03*
X2330800Y-95700D03*
D13*
X2161000Y-25700D03*
X2399000Y-25700D03*
D10*
X2161000Y-178100D03*
X2399000Y-178100D03*
D12*
X2241900Y-70300D03*
X2305400Y-44900D03*
D10*
X2375200Y-95700D03*
D11*
X2324400Y-95700D03*
X2426000Y-95700D03*
D12*
X2337100Y-70300D03*
X2400600Y-44900D03*
D10*
X2613800Y-95200D03*
D11*
X2563000Y-95200D03*
X2664600Y-95200D03*
D12*
X2575700Y-69800D03*
X2639200Y-44400D03*
D10*
X2803800Y-95200D03*
D11*
X2753000Y-95200D03*
X2854600Y-95200D03*
D12*
X2765700Y-69800D03*
X2829200Y-44400D03*
D10*
X2993800Y-95200D03*
D11*
X2943000Y-95200D03*
X3044600Y-95200D03*
D12*
X2955700Y-69800D03*
X3019200Y-44400D03*
D10*
X142800Y-285100D03*
D11*
X92000Y-285100D03*
X193600Y-285100D03*
D12*
X104700Y-259700D03*
X168200Y-234300D03*
D10*
X380500Y-285200D03*
D11*
X329700Y-285200D03*
X431300Y-285200D03*
D12*
X342400Y-259800D03*
X405900Y-234400D03*
D10*
X570600Y-285400D03*
D11*
X519800Y-285400D03*
X621400Y-285400D03*
D12*
X532500Y-260000D03*
X596000Y-234600D03*
D10*
X760500Y-285200D03*
D11*
X709700Y-285200D03*
X811300Y-285200D03*
D12*
X722400Y-259800D03*
X785900Y-234400D03*
D10*
X950500Y-285200D03*
D11*
X899700Y-285200D03*
X1001300Y-285200D03*
D12*
X912400Y-259800D03*
X975900Y-234400D03*
D10*
X1140500Y-285200D03*
D11*
X1089700Y-285200D03*
X1191300Y-285200D03*
D12*
X1102400Y-259800D03*
X1165900Y-234400D03*
D10*
X1330500Y-285200D03*
D11*
X1279700Y-285200D03*
X1381300Y-285200D03*
D12*
X1292400Y-259800D03*
X1355900Y-234400D03*
D10*
X1520500Y-285200D03*
D11*
X1469700Y-285200D03*
X1571300Y-285200D03*
D12*
X1482400Y-259800D03*
X1545900Y-234400D03*
D10*
X1710500Y-285200D03*
D11*
X1659700Y-285200D03*
X1761300Y-285200D03*
D12*
X1672400Y-259800D03*
X1735900Y-234400D03*
D10*
X1900700Y-284900D03*
D11*
X1849900Y-284900D03*
X1951500Y-284900D03*
D12*
X1862600Y-259500D03*
X1926100Y-234100D03*
D10*
X2091000Y-285700D03*
D11*
X2040200Y-285700D03*
X2141800Y-285700D03*
D12*
X2052900Y-260300D03*
X2116400Y-234900D03*
D10*
X2327600Y-285700D03*
D11*
X2276800Y-285700D03*
X2378400Y-285700D03*
D12*
X2289500Y-260300D03*
X2353000Y-234900D03*
D10*
X2351500Y-381100D03*
D11*
X2351500Y-431900D03*
X2351500Y-330300D03*
D13*
X2421500Y-500100D03*
X2421500Y-262100D03*
D10*
X2269100Y-500100D03*
X2269100Y-262100D03*
D12*
X2326100Y-419200D03*
X2300700Y-355700D03*
D10*
X2613800Y-285200D03*
D11*
X2563000Y-285200D03*
X2664600Y-285200D03*
D12*
X2575700Y-259800D03*
X2639200Y-234400D03*
D10*
X2803800Y-285200D03*
D11*
X2753000Y-285200D03*
X2854600Y-285200D03*
D12*
X2765700Y-259800D03*
X2829200Y-234400D03*
D10*
X2993800Y-285200D03*
D11*
X2943000Y-285200D03*
X3044600Y-285200D03*
D12*
X2955700Y-259800D03*
X3019200Y-234400D03*
D10*
X166600Y-475200D03*
D11*
X115800Y-475200D03*
X217400Y-475200D03*
D12*
X128500Y-449800D03*
X192000Y-424400D03*
D10*
X118500Y-474900D03*
D11*
X67700Y-474900D03*
X169300Y-474900D03*
D12*
X80400Y-449500D03*
X143900Y-424100D03*
D10*
X427600Y-475200D03*
D11*
X376800Y-475200D03*
X478400Y-475200D03*
D12*
X389500Y-449800D03*
X453000Y-424400D03*
D10*
X617600Y-475200D03*
D11*
X566800Y-475200D03*
X668400Y-475200D03*
D12*
X579500Y-449800D03*
X643000Y-424400D03*
D10*
X807600Y-475200D03*
D11*
X756800Y-475200D03*
X858400Y-475200D03*
D12*
X769500Y-449800D03*
X833000Y-424400D03*
D10*
X998100Y-475200D03*
D11*
X947300Y-475200D03*
X1048900Y-475200D03*
D12*
X960000Y-449800D03*
X1023500Y-424400D03*
D10*
X1188100Y-475200D03*
D11*
X1137300Y-475200D03*
X1238900Y-475200D03*
D12*
X1150000Y-449800D03*
X1213500Y-424400D03*
D10*
X1378100Y-475200D03*
D11*
X1327300Y-475200D03*
X1428900Y-475200D03*
D12*
X1340000Y-449800D03*
X1403500Y-424400D03*
D10*
X1568100Y-475200D03*
D11*
X1517300Y-475200D03*
X1618900Y-475200D03*
D12*
X1530000Y-449800D03*
X1593500Y-424400D03*
D10*
X1758100Y-475200D03*
D11*
X1707300Y-475200D03*
X1808900Y-475200D03*
D12*
X1720000Y-449800D03*
X1783500Y-424400D03*
D10*
X1948100Y-475200D03*
D11*
X1897300Y-475200D03*
X1998900Y-475200D03*
D12*
X1910000Y-449800D03*
X1973500Y-424400D03*
D10*
X2137600Y-475200D03*
D11*
X2086800Y-475200D03*
X2188400Y-475200D03*
D12*
X2099500Y-449800D03*
X2163000Y-424400D03*
D10*
X2256600Y-475200D03*
D11*
X2205800Y-475200D03*
X2307400Y-475200D03*
D13*
X2137600Y-405200D03*
X2375600Y-405200D03*
D10*
X2137600Y-557600D03*
X2375600Y-557600D03*
D12*
X2218500Y-449800D03*
X2282000Y-424400D03*
D10*
X2351400Y-475200D03*
D11*
X2300600Y-475200D03*
X2402200Y-475200D03*
D12*
X2313300Y-449800D03*
X2376800Y-424400D03*
D10*
X2613800Y-475200D03*
D11*
X2563000Y-475200D03*
X2664600Y-475200D03*
D12*
X2575700Y-449800D03*
X2639200Y-424400D03*
D10*
X2803800Y-475200D03*
D11*
X2753000Y-475200D03*
X2854600Y-475200D03*
D12*
X2765700Y-449800D03*
X2829200Y-424400D03*
D10*
X2993800Y-475200D03*
D11*
X2943000Y-475200D03*
X3044600Y-475200D03*
D12*
X2955700Y-449800D03*
X3019200Y-424400D03*
D10*
X119000Y-665200D03*
D11*
X68200Y-665200D03*
X169800Y-665200D03*
D12*
X80900Y-639800D03*
X144400Y-614400D03*
D10*
X214300Y-665200D03*
D11*
X163500Y-665200D03*
X265100Y-665200D03*
D13*
X95300Y-595200D03*
X333300Y-595200D03*
D10*
X95300Y-747600D03*
X333300Y-747600D03*
D12*
X176200Y-639800D03*
X239700Y-614400D03*
D10*
X332800Y-665200D03*
D11*
X282000Y-665200D03*
X383600Y-665200D03*
D12*
X294700Y-639800D03*
X358200Y-614400D03*
D10*
X522800Y-665200D03*
D11*
X472000Y-665200D03*
X573600Y-665200D03*
D12*
X484700Y-639800D03*
X548200Y-614400D03*
D10*
X712800Y-665200D03*
D11*
X662000Y-665200D03*
X763600Y-665200D03*
D12*
X674700Y-639800D03*
X738200Y-614400D03*
D10*
X902800Y-665200D03*
D11*
X852000Y-665200D03*
X953600Y-665200D03*
D12*
X864700Y-639800D03*
X928200Y-614400D03*
D10*
X1092800Y-665200D03*
D11*
X1042000Y-665200D03*
X1143600Y-665200D03*
D12*
X1054700Y-639800D03*
X1118200Y-614400D03*
D10*
X1282800Y-665200D03*
D11*
X1232000Y-665200D03*
X1333600Y-665200D03*
D12*
X1244700Y-639800D03*
X1308200Y-614400D03*
D10*
X1473300Y-665200D03*
D11*
X1422500Y-665200D03*
X1524100Y-665200D03*
D12*
X1435200Y-639800D03*
X1498700Y-614400D03*
D10*
X1663800Y-665700D03*
D11*
X1613000Y-665700D03*
X1714600Y-665700D03*
D12*
X1625700Y-640300D03*
X1689200Y-614900D03*
D10*
X1854300Y-665200D03*
D11*
X1803500Y-665200D03*
X1905100Y-665200D03*
D12*
X1816200Y-639800D03*
X1879700Y-614400D03*
D10*
X2092000Y-665200D03*
D11*
X2041200Y-665200D03*
X2142800Y-665200D03*
D12*
X2053900Y-639800D03*
X2117400Y-614400D03*
D10*
X2613800Y-665200D03*
D11*
X2563000Y-665200D03*
X2664600Y-665200D03*
D12*
X2575700Y-639800D03*
X2639200Y-614400D03*
D10*
X2803800Y-665200D03*
D11*
X2753000Y-665200D03*
X2854600Y-665200D03*
D12*
X2765700Y-639800D03*
X2829200Y-614400D03*
D10*
X2993800Y-665200D03*
D11*
X2943000Y-665200D03*
X3044600Y-665200D03*
D12*
X2955700Y-639800D03*
X3019200Y-614400D03*
D10*
X2376900Y-713000D03*
D11*
X2326100Y-713000D03*
X2427700Y-713000D03*
D12*
X2338800Y-687600D03*
X2402300Y-662200D03*
D10*
X119000Y-855200D03*
D11*
X68200Y-855200D03*
X169800Y-855200D03*
D12*
X80900Y-829800D03*
X144400Y-804400D03*
D10*
X332800Y-855200D03*
D11*
X282000Y-855200D03*
X383600Y-855200D03*
D12*
X294700Y-829800D03*
X358200Y-804400D03*
D10*
X546600Y-855700D03*
D11*
X495800Y-855700D03*
X597400Y-855700D03*
D12*
X508500Y-830300D03*
X572000Y-804900D03*
D10*
X1021900Y-855200D03*
D11*
X971100Y-855200D03*
X1072700Y-855200D03*
D13*
X521900Y-925200D03*
X1521900Y-925200D03*
D10*
X521900Y-772800D03*
X1521900Y-772800D03*
D12*
X983800Y-829800D03*
X1047300Y-804400D03*
D10*
X926600Y-855200D03*
D11*
X875800Y-855200D03*
X977400Y-855200D03*
D13*
X807600Y-925200D03*
X1045600Y-925200D03*
D10*
X807600Y-772800D03*
X1045600Y-772800D03*
D12*
X888500Y-829800D03*
X952000Y-804400D03*
D10*
X1401400Y-855200D03*
D11*
X1350600Y-855200D03*
X1452200Y-855200D03*
D13*
X1282400Y-925200D03*
X1520400Y-925200D03*
D10*
X1282400Y-772800D03*
X1520400Y-772800D03*
D12*
X1363300Y-829800D03*
X1426800Y-804400D03*
D10*
X1710500Y-856200D03*
D11*
X1659700Y-856200D03*
X1761300Y-856200D03*
D12*
X1672400Y-830800D03*
X1735900Y-805400D03*
D10*
X1924800Y-855700D03*
D11*
X1874000Y-855700D03*
X1975600Y-855700D03*
D12*
X1886700Y-830300D03*
X1950200Y-804900D03*
D10*
X2803800Y-855200D03*
D11*
X2753000Y-855200D03*
X2854600Y-855200D03*
D12*
X2765700Y-829800D03*
X2829200Y-804400D03*
D10*
X2993800Y-855200D03*
D11*
X2943000Y-855200D03*
X3044600Y-855200D03*
D12*
X2955700Y-829800D03*
X3019200Y-804400D03*
D10*
X2186700Y-902800D03*
D11*
X2135900Y-902800D03*
X2237500Y-902800D03*
D12*
X2148600Y-877400D03*
X2212100Y-852000D03*
D10*
X2376700Y-902800D03*
D11*
X2325900Y-902800D03*
X2427500Y-902800D03*
D12*
X2338600Y-877400D03*
X2402100Y-852000D03*
D10*
X2566700Y-902800D03*
D11*
X2515900Y-902800D03*
X2617500Y-902800D03*
D12*
X2528600Y-877400D03*
X2592100Y-852000D03*
D14*
X1558500Y-811000D03*
X1558500Y-849000D03*
X1621500Y-811000D03*
X1621500Y-849000D03*
D15*
X1585700Y4000D03*
D16*
X1585800Y-37800D03*
D15*
X1499300Y4000D03*
D16*
X1499100Y-37800D03*
D17*
X1514560Y-30960D03*
X1570440Y-30960D03*
D18*
X1024000Y-212000D03*
X970000Y-903438D03*
X886000Y-405500D03*
X910500Y-898794D03*
X1143000Y-748000D03*
X1243000Y-747000D03*
X1087000Y-824500D03*
X1090500Y-904500D03*
X1244500Y-906000D03*
X1275500Y-847500D03*
X1169500Y-757500D03*
X1478500Y-80000D03*
D19*
X1450000Y-120000D03*
D18*
X1122193Y-785932D03*
X1128500Y-897000D03*
X1213580Y-917420D03*
X1259500Y-827170D03*
D20*
X1473000Y-49500D03*
D18*
X1618500Y-868000D03*
X1331694Y-775376D03*
X1304000Y-754500D03*
X1342500Y-838500D03*
X2154500Y-914000D03*
X1572500Y-864500D03*
M02*
