G04 EAGLE Gerber RS-274X export*
G75*
%MOMM*%
%FSLAX34Y34*%
%LPD*%
%INSolderpaste Bottom*%
%IPPOS*%
%AMOC8*
5,1,8,0,0,1.08239X$1,22.5*%
G01*
%ADD10R,1.220000X0.910000*%
%ADD11R,0.910000X1.220000*%
%ADD12R,0.355600X1.168400*%
%ADD13R,1.168400X0.355600*%
%ADD14R,1.000000X1.100000*%
%ADD15R,1.100000X1.000000*%
%ADD16R,1.193800X1.397000*%
%ADD17R,0.600000X1.450000*%
%ADD18R,0.300000X1.450000*%
%ADD19R,1.700000X1.000000*%

G36*
X1286958Y-851401D02*
X1286958Y-851401D01*
X1297528Y-845851D01*
X1297529Y-845850D01*
X1297531Y-845849D01*
X1297550Y-845824D01*
X1297557Y-845822D01*
X1297561Y-845811D01*
X1297590Y-845775D01*
X1297590Y-845773D01*
X1297591Y-845771D01*
X1297588Y-845741D01*
X1297592Y-845730D01*
X1297584Y-845713D01*
X1297581Y-845681D01*
X1291087Y-833312D01*
X1291085Y-833310D01*
X1291085Y-833308D01*
X1291048Y-833280D01*
X1291011Y-833249D01*
X1291008Y-833250D01*
X1291007Y-833248D01*
X1290916Y-833259D01*
X1280346Y-838808D01*
X1280345Y-838810D01*
X1280343Y-838810D01*
X1280332Y-838824D01*
X1280321Y-838828D01*
X1280314Y-838848D01*
X1280284Y-838884D01*
X1280284Y-838886D01*
X1280283Y-838888D01*
X1280286Y-838918D01*
X1280286Y-838920D01*
X1280287Y-838923D01*
X1280293Y-838979D01*
X1286787Y-851347D01*
X1286789Y-851349D01*
X1286789Y-851351D01*
X1286826Y-851380D01*
X1286863Y-851410D01*
X1286866Y-851410D01*
X1286867Y-851411D01*
X1286958Y-851401D01*
G37*
G36*
X1312084Y-863741D02*
X1312084Y-863741D01*
X1322654Y-858192D01*
X1322655Y-858190D01*
X1322657Y-858190D01*
X1322676Y-858165D01*
X1322683Y-858162D01*
X1322687Y-858152D01*
X1322716Y-858116D01*
X1322716Y-858114D01*
X1322717Y-858112D01*
X1322714Y-858082D01*
X1322718Y-858070D01*
X1322710Y-858054D01*
X1322707Y-858021D01*
X1316213Y-845653D01*
X1316211Y-845651D01*
X1316211Y-845649D01*
X1316174Y-845620D01*
X1316137Y-845590D01*
X1316134Y-845590D01*
X1316133Y-845589D01*
X1316042Y-845599D01*
X1305473Y-851149D01*
X1305471Y-851150D01*
X1305469Y-851151D01*
X1305458Y-851164D01*
X1305447Y-851169D01*
X1305440Y-851189D01*
X1305410Y-851225D01*
X1305410Y-851227D01*
X1305409Y-851229D01*
X1305413Y-851259D01*
X1305412Y-851261D01*
X1305413Y-851264D01*
X1305419Y-851319D01*
X1311913Y-863688D01*
X1311915Y-863690D01*
X1311915Y-863692D01*
X1311952Y-863720D01*
X1311989Y-863751D01*
X1311992Y-863750D01*
X1311993Y-863752D01*
X1312084Y-863741D01*
G37*
G36*
X1301576Y-843726D02*
X1301576Y-843726D01*
X1312145Y-838177D01*
X1312147Y-838175D01*
X1312149Y-838175D01*
X1312168Y-838150D01*
X1312174Y-838147D01*
X1312178Y-838136D01*
X1312208Y-838101D01*
X1312208Y-838098D01*
X1312209Y-838097D01*
X1312205Y-838067D01*
X1312210Y-838055D01*
X1312202Y-838039D01*
X1312198Y-838006D01*
X1305705Y-825637D01*
X1305703Y-825636D01*
X1305703Y-825634D01*
X1305665Y-825605D01*
X1305628Y-825575D01*
X1305626Y-825575D01*
X1305625Y-825574D01*
X1305534Y-825584D01*
X1294964Y-831134D01*
X1294963Y-831135D01*
X1294961Y-831135D01*
X1294950Y-831149D01*
X1294939Y-831154D01*
X1294932Y-831174D01*
X1294902Y-831210D01*
X1294902Y-831212D01*
X1294901Y-831214D01*
X1294904Y-831244D01*
X1294904Y-831246D01*
X1294905Y-831248D01*
X1294911Y-831304D01*
X1301405Y-843673D01*
X1301407Y-843674D01*
X1301407Y-843676D01*
X1301444Y-843705D01*
X1301481Y-843735D01*
X1301483Y-843735D01*
X1301485Y-843736D01*
X1301576Y-843726D01*
G37*
G36*
X1297466Y-871416D02*
X1297466Y-871416D01*
X1308036Y-865866D01*
X1308037Y-865865D01*
X1308039Y-865865D01*
X1308059Y-865839D01*
X1308065Y-865837D01*
X1308069Y-865826D01*
X1308098Y-865790D01*
X1308098Y-865788D01*
X1308099Y-865786D01*
X1308096Y-865756D01*
X1308100Y-865745D01*
X1308093Y-865728D01*
X1308089Y-865696D01*
X1301595Y-853327D01*
X1301593Y-853326D01*
X1301593Y-853324D01*
X1301556Y-853295D01*
X1301519Y-853265D01*
X1301517Y-853265D01*
X1301515Y-853264D01*
X1301425Y-853274D01*
X1290855Y-858823D01*
X1290853Y-858825D01*
X1290851Y-858825D01*
X1290841Y-858839D01*
X1290829Y-858844D01*
X1290822Y-858863D01*
X1290792Y-858899D01*
X1290793Y-858902D01*
X1290791Y-858903D01*
X1290795Y-858934D01*
X1290794Y-858936D01*
X1290795Y-858938D01*
X1290802Y-858994D01*
X1297295Y-871363D01*
X1297297Y-871364D01*
X1297297Y-871366D01*
X1297335Y-871395D01*
X1297372Y-871425D01*
X1297374Y-871425D01*
X1297376Y-871426D01*
X1297466Y-871416D01*
G37*
D10*
X156300Y-15450D03*
X156300Y-48150D03*
X346800Y-15450D03*
X346800Y-48150D03*
X537300Y-15450D03*
X537300Y-48150D03*
X727800Y-15450D03*
X727800Y-48150D03*
X918300Y-15450D03*
X918300Y-48150D03*
X1108800Y-15450D03*
X1108800Y-48150D03*
X1289800Y-13950D03*
X1289800Y-46650D03*
D11*
X1417950Y-19200D03*
X1450650Y-19200D03*
D10*
X1680300Y-15450D03*
X1680300Y-48150D03*
X1870800Y-15450D03*
X1870800Y-48150D03*
X2061300Y-15450D03*
X2061300Y-48150D03*
X2251800Y-15450D03*
X2251800Y-48150D03*
X2347100Y-15450D03*
X2347100Y-48150D03*
X2681900Y-15450D03*
X2681900Y-48150D03*
X2872400Y-15450D03*
X2872400Y-48150D03*
X3049900Y-22450D03*
X3049900Y-55150D03*
X203900Y-200950D03*
X203900Y-233650D03*
X442100Y-200950D03*
X442100Y-233650D03*
X632600Y-200950D03*
X632600Y-233650D03*
X823100Y-200950D03*
X823100Y-233650D03*
X1013600Y-200950D03*
X1013600Y-233650D03*
X1204100Y-200950D03*
X1204100Y-233650D03*
X1394600Y-200950D03*
X1394600Y-233650D03*
X1585100Y-200950D03*
X1585100Y-233650D03*
X1775600Y-200950D03*
X1775600Y-233650D03*
X1966100Y-200950D03*
X1966100Y-233650D03*
X2156600Y-205950D03*
X2156600Y-238650D03*
X2394700Y-205950D03*
X2394700Y-238650D03*
X2440500Y-367250D03*
X2440500Y-399950D03*
X2681900Y-200950D03*
X2681900Y-233650D03*
X2872400Y-200950D03*
X2872400Y-233650D03*
X3062900Y-200950D03*
X3062900Y-233650D03*
X230100Y-391450D03*
X230100Y-424150D03*
X489700Y-391450D03*
X489700Y-424150D03*
X680200Y-391450D03*
X680200Y-424150D03*
X870700Y-391450D03*
X870700Y-424150D03*
X1061200Y-391450D03*
X1061200Y-424150D03*
X1251700Y-391450D03*
X1251700Y-424150D03*
X1442200Y-391450D03*
X1442200Y-424150D03*
X1632700Y-391450D03*
X1632700Y-424150D03*
X1823200Y-391450D03*
X1823200Y-424150D03*
X2013700Y-391450D03*
X2013700Y-424150D03*
X2204200Y-391450D03*
X2204200Y-424150D03*
X2681900Y-391450D03*
X2681900Y-424150D03*
X2872400Y-391450D03*
X2872400Y-424150D03*
X3062900Y-391450D03*
X3062900Y-424150D03*
X180100Y-581950D03*
X180100Y-614650D03*
X394400Y-581950D03*
X394400Y-614650D03*
X584900Y-581950D03*
X584900Y-614650D03*
X775400Y-581950D03*
X775400Y-614650D03*
X965900Y-581950D03*
X965900Y-614650D03*
X1156400Y-581950D03*
X1156400Y-614650D03*
X1346900Y-581950D03*
X1346900Y-614650D03*
X1537400Y-581950D03*
X1537400Y-614650D03*
X1727900Y-581950D03*
X1727900Y-614650D03*
X1918400Y-581950D03*
X1918400Y-614650D03*
X2156600Y-581950D03*
X2156600Y-614650D03*
X2681900Y-581950D03*
X2681900Y-614650D03*
X2872400Y-581950D03*
X2872400Y-614650D03*
X3062900Y-581950D03*
X3062900Y-614650D03*
X2442300Y-629550D03*
X2442300Y-662250D03*
X180100Y-772450D03*
X180100Y-805150D03*
X394400Y-772450D03*
X394400Y-805150D03*
X608700Y-747450D03*
X608700Y-780150D03*
X1090000Y-747450D03*
X1090000Y-780150D03*
X989700Y-747450D03*
X989700Y-780150D03*
X1466000Y-747450D03*
X1466000Y-780150D03*
X1775600Y-772450D03*
X1775600Y-805150D03*
X1989900Y-772450D03*
X1989900Y-805150D03*
X2870900Y-772450D03*
X2870900Y-805150D03*
X3061400Y-772450D03*
X3061400Y-805150D03*
X2251800Y-820050D03*
X2251800Y-852750D03*
X2442300Y-820050D03*
X2442300Y-852750D03*
X2632800Y-820050D03*
X2632800Y-852750D03*
D12*
X1150000Y-793866D03*
X1158000Y-793866D03*
X1166000Y-793866D03*
X1174000Y-793866D03*
X1182000Y-793866D03*
X1190000Y-793866D03*
X1198000Y-793866D03*
X1206000Y-793866D03*
X1214000Y-793866D03*
X1222000Y-793866D03*
X1230000Y-793866D03*
D13*
X1246134Y-810000D03*
X1246134Y-818000D03*
X1246134Y-826000D03*
X1246134Y-834000D03*
X1246134Y-842000D03*
X1246134Y-850000D03*
X1246134Y-858000D03*
X1246134Y-866000D03*
X1246134Y-874000D03*
X1246134Y-882000D03*
X1246134Y-890000D03*
D12*
X1230000Y-906134D03*
X1222000Y-906134D03*
X1214000Y-906134D03*
X1206000Y-906134D03*
X1198000Y-906134D03*
X1190000Y-906134D03*
X1182000Y-906134D03*
X1174000Y-906134D03*
X1166000Y-906134D03*
X1158000Y-906134D03*
X1150000Y-906134D03*
D13*
X1133866Y-890000D03*
X1133866Y-882000D03*
X1133866Y-874000D03*
X1133866Y-866000D03*
X1133866Y-858000D03*
X1133866Y-850000D03*
X1133866Y-842000D03*
X1133866Y-834000D03*
X1133866Y-826000D03*
X1133866Y-818000D03*
X1133866Y-810000D03*
D14*
X1187000Y-771500D03*
X1187000Y-754500D03*
D15*
X1128000Y-910500D03*
X1111000Y-910500D03*
D16*
G36*
X1295024Y-831246D02*
X1305592Y-825696D01*
X1312086Y-838064D01*
X1301518Y-843614D01*
X1295024Y-831246D01*
G37*
G36*
X1305532Y-851261D02*
X1316100Y-845711D01*
X1322594Y-858079D01*
X1312026Y-863629D01*
X1305532Y-851261D01*
G37*
G36*
X1307976Y-865754D02*
X1297408Y-871304D01*
X1290914Y-858936D01*
X1301482Y-853386D01*
X1307976Y-865754D01*
G37*
G36*
X1297468Y-845739D02*
X1286900Y-851289D01*
X1280406Y-838921D01*
X1290974Y-833371D01*
X1297468Y-845739D01*
G37*
D15*
G36*
X1310670Y-825902D02*
X1305170Y-816376D01*
X1313830Y-811376D01*
X1319330Y-820902D01*
X1310670Y-825902D01*
G37*
G36*
X1319170Y-840624D02*
X1313670Y-831098D01*
X1322330Y-826098D01*
X1327830Y-835624D01*
X1319170Y-840624D01*
G37*
D14*
X1331200Y-864400D03*
X1331200Y-847400D03*
D15*
X1538500Y-866000D03*
X1555500Y-866000D03*
G36*
X1102486Y-808693D02*
X1110263Y-800916D01*
X1117334Y-807987D01*
X1109557Y-815764D01*
X1102486Y-808693D01*
G37*
G36*
X1090466Y-820713D02*
X1098243Y-812936D01*
X1105314Y-820007D01*
X1097537Y-827784D01*
X1090466Y-820713D01*
G37*
X1224550Y-918500D03*
X1241550Y-918500D03*
X1263500Y-821500D03*
X1280500Y-821500D03*
X1114500Y-890000D03*
X1097500Y-890000D03*
G36*
X1128586Y-789343D02*
X1136363Y-781566D01*
X1143434Y-788637D01*
X1135657Y-796414D01*
X1128586Y-789343D01*
G37*
G36*
X1116566Y-801363D02*
X1124343Y-793586D01*
X1131414Y-800657D01*
X1123637Y-808434D01*
X1116566Y-801363D01*
G37*
D17*
X1510250Y-46950D03*
X1518000Y-46950D03*
D18*
X1525000Y-46950D03*
X1530000Y-46950D03*
X1535000Y-46950D03*
X1540000Y-46950D03*
X1545000Y-46950D03*
X1550000Y-46950D03*
X1555000Y-46950D03*
X1560000Y-46950D03*
D17*
X1567000Y-46950D03*
X1574750Y-46950D03*
D14*
X1545000Y-87500D03*
X1545000Y-104500D03*
X1498000Y-87500D03*
X1498000Y-104500D03*
X1513500Y-87500D03*
X1513500Y-104500D03*
X1529500Y-87500D03*
X1529500Y-104500D03*
D19*
X1621340Y-811320D03*
X1621340Y-849320D03*
X1558340Y-811320D03*
X1558340Y-849320D03*
M02*
