M48
;GenerationSoftware,Autodesk,EAGLE,9.5.0*%
;CreationDate,2020-07-24T22:18:35Z*%
FMAT,2
ICI,OFF
METRIC,TZ,000.000
T10C0.350
T9C0.600
T8C0.750
T7C0.800
T6C1.000
T5C1.100
T4C1.300
T3C1.700
T2C3.050
T1C4.000
%
G90
M71
T1
X232760Y-28570
X280380Y-85520
X192480Y-85570
X171050Y-85620
X152040Y-77280
X128240Y-77280
X209200Y-66520
X118810Y-47520
X140140Y-85520
X104560Y-77280
X80760Y-77280
X152050Y-28520
X280380Y-47520
X92660Y-85520
X152190Y-77280
X52190Y-77280
X166380Y-66570
X299380Y-85520
X102190Y-85520
X54660Y-85570
X33280Y-85520
X11900Y-85520
X237690Y-71300
X299380Y-66520
X9520Y-9520
X171050Y-28520
X137810Y-47520
X28520Y-9520
X52280Y-66520
X190070Y-28490
X47520Y-9520
X299380Y-47520
X156810Y-47520
X66520Y-9520
X209100Y-28570
X109280Y-66520
X85520Y-9520
X147330Y-66520
X280380Y-66520
X104520Y-9520
X175810Y-47520
X11900Y-66520
X123520Y-9520
X235150Y-38110
X71280Y-66520
X142520Y-9520
X194810Y-47520
X218670Y-90280
X161500Y-9500
X237670Y-90280
X226910Y-50010
X180470Y-9520
X226910Y-26210
X261380Y-28520
X199520Y-9570
X185430Y-66520
X218520Y-9570
X21430Y-66520
X280380Y-28520
X228000Y-9570
X213760Y-47520
X128280Y-66520
X216100Y-17810
X239900Y-17810
X237520Y-9570
X299380Y-28520
X90280Y-66520
X261380Y-9520
X225660Y-47520
X16660Y-47520
X280380Y-9520
X299380Y-9520
X11850Y-47490
X261380Y-66520
X14280Y-28510
X261380Y-47520
X42760Y-47520
X38050Y-28520
X213760Y-55760
X237560Y-55760
X57060Y-28540
X61760Y-47520
X235140Y-47520
X76050Y-28520
X9530Y-74760
X80760Y-47520
X95050Y-28520
X33330Y-74760
X256670Y-90280
X114050Y-28520
X99810Y-47520
X33280Y-66520
X133050Y-28520
T2
X152040Y-92520
X128240Y-92520
X104560Y-92520
X80760Y-92520
X152190Y-92520
X52190Y-92520
X242150Y-50010
X242150Y-26210
X213760Y-40520
X216100Y-2570
X239900Y-2570
X9530Y-59520
X33330Y-59520
X237560Y-40520
T3
X42440Y-9520
X52600Y-9520
X61440Y-9520
X71600Y-9520
X80440Y-9520
X90600Y-9520
X99440Y-9520
X109600Y-9520
X118440Y-9520
X128600Y-9520
X137440Y-9520
X147600Y-9520
X156420Y-9500
X166580Y-9500
X175390Y-9520
X185550Y-9520
X194440Y-9570
X213440Y-9570
X223600Y-9570
X222920Y-9570
X233080Y-9570
X232440Y-9570
X242600Y-9570
X256300Y-9520
X266460Y-9520
X275300Y-9520
X285460Y-9520
X294300Y-9520
X304460Y-9520
X9200Y-28510
X19360Y-28510
X32970Y-28520
X43130Y-28520
X51980Y-28540
X62140Y-28540
X70970Y-28520
X81130Y-28520
X89970Y-28520
X100130Y-28520
X108970Y-28520
X119130Y-28520
X127970Y-28520
X138130Y-28520
X146970Y-28520
X157130Y-28520
X165970Y-28520
X176130Y-28520
X184990Y-28490
X195150Y-28490
X204020Y-28570
X214180Y-28570
X227680Y-28570
X237840Y-28570
X235150Y-43190
X235150Y-33030
X256300Y-28520
X266460Y-28520
X275300Y-28520
X285460Y-28520
X294300Y-28520
X304460Y-28520
X11580Y-47520
X21740Y-47520
X6770Y-47490
X16930Y-47490
X37680Y-47520
X47840Y-47520
X56680Y-47520
X66840Y-47520
X75680Y-47520
X85840Y-47520
X94730Y-47520
X104890Y-47520
X113730Y-47520
X123890Y-47520
X132730Y-47520
X142890Y-47520
X151730Y-47520
X161890Y-47520
X170730Y-47520
X180890Y-47520
X189730Y-47520
X199890Y-47520
X208680Y-47520
X218840Y-47520
X220580Y-47520
X230740Y-47520
X230060Y-47520
X240220Y-47520
X256300Y-47520
X266460Y-47520
X275300Y-47520
X285460Y-47520
X294300Y-47520
X304460Y-47520
X6820Y-66520
X16980Y-66520
X16350Y-66520
X26510Y-66520
X28200Y-66520
X38360Y-66520
X47200Y-66520
X57360Y-66520
X66200Y-66520
X76360Y-66520
X85200Y-66520
X95360Y-66520
X104200Y-66520
X114360Y-66520
X123200Y-66520
X133360Y-66520
X142250Y-66520
X152410Y-66520
X161300Y-66570
X171460Y-66570
X180350Y-66520
X190510Y-66520
X204120Y-66520
X214280Y-66520
X204600Y-9570
X256300Y-66520
X266460Y-66520
X275300Y-66520
X285460Y-66520
X294300Y-66520
X304460Y-66520
X232610Y-71300
X242770Y-71300
X6820Y-85520
X16980Y-85520
X28200Y-85520
X38360Y-85520
X49580Y-85570
X59740Y-85570
X97110Y-85520
X107270Y-85520
X87580Y-85520
X97740Y-85520
X135060Y-85520
X145220Y-85520
X165970Y-85620
X176130Y-85620
X187400Y-85570
X197560Y-85570
X275300Y-85520
X285460Y-85520
X4440Y-9520
X294300Y-85520
X304460Y-85520
X14600Y-9520
X213590Y-90280
X223750Y-90280
X23440Y-9520
X232590Y-90280
X242750Y-90280
X33600Y-9520
X251590Y-90280
X261750Y-90280
T4
X195710Y-7030
X8090Y-82980
X14440Y-80440
X29470Y-82980
X35820Y-80440
X50850Y-83030
X57200Y-80490
X104730Y-80440
X88850Y-82980
X95200Y-80440
X136330Y-82980
X142680Y-80440
X167240Y-83080
X173590Y-80540
X188670Y-83030
X195020Y-80490
X276570Y-82980
X282920Y-80440
X295570Y-82980
X301920Y-80440
X214860Y-87740
X221210Y-85200
X233860Y-87740
X8040Y-44950
X240210Y-85200
X252860Y-87740
X5710Y-6980
X12060Y-4440
X24710Y-6980
X31060Y-4440
X43710Y-6980
X50060Y-4440
X62710Y-6980
X69060Y-4440
X81710Y-6980
X88060Y-4440
X100710Y-6980
X107060Y-4440
X119710Y-6980
X126060Y-4440
X138710Y-6980
X145060Y-4440
X157690Y-6960
X164040Y-4420
X176660Y-6980
X183010Y-4440
X259210Y-85200
X202060Y-4490
X214710Y-7030
X221060Y-4490
X224190Y-7030
X230540Y-4490
X233710Y-7030
X240060Y-4490
X257570Y-6980
X263920Y-4440
X276570Y-6980
X282920Y-4440
X295570Y-6980
X301920Y-4440
X10470Y-25970
X16820Y-23430
X34240Y-25980
X40590Y-23440
X53250Y-26000
X59600Y-23460
X72240Y-25980
X78590Y-23440
X91240Y-25980
X97590Y-23440
X110240Y-25980
X116590Y-23440
X129240Y-25980
X135590Y-23440
X148240Y-25980
X154590Y-23440
X167240Y-25980
X173590Y-23440
X186260Y-25950
X192610Y-23410
X205290Y-26030
X211640Y-23490
X228950Y-26030
X235300Y-23490
X232610Y-41920
X230070Y-35570
X257570Y-25980
X263920Y-23440
X276570Y-25980
X282920Y-23440
X295570Y-25980
X301920Y-23440
X12850Y-44980
X19200Y-42440
X98380Y-82980
X14390Y-42410
X38950Y-44980
X45300Y-42440
X57950Y-44980
X64300Y-42440
X76950Y-44980
X83300Y-42440
X96000Y-44980
X102350Y-42440
X115000Y-44980
X121350Y-42440
X134000Y-44980
X140350Y-42440
X153000Y-44980
X159350Y-42440
X172000Y-44980
X178350Y-42440
X191000Y-44980
X197350Y-42440
X209950Y-44980
X216300Y-42440
X221850Y-44980
X228200Y-42440
X231330Y-44980
X237680Y-42440
X257570Y-44980
X263920Y-42440
X276570Y-44980
X282920Y-42440
X295570Y-44980
X301920Y-42440
X8090Y-63980
X14440Y-61440
X17620Y-63980
X23970Y-61440
X29470Y-63980
X35820Y-61440
X48470Y-63980
X54820Y-61440
X67470Y-63980
X73820Y-61440
X86470Y-63980
X92820Y-61440
X105470Y-63980
X111820Y-61440
X124470Y-63980
X130820Y-61440
X143520Y-63980
X149870Y-61440
X162570Y-64030
X168920Y-61490
X181620Y-63980
X187970Y-61440
X205390Y-63980
X211740Y-61440
X257570Y-63980
X263920Y-61440
X276570Y-63980
X282920Y-61440
X295570Y-63980
X301920Y-61440
X233880Y-68760
X240230Y-66220
T5
X158580Y-3780
X149910Y-3780
T6
X158570Y400
X149930Y400
T7
X145000Y-12000
T8
X151456Y-3096
X157044Y-3096
T9
X147300Y-4950
T10
X124300Y-74700
X114300Y-74800
X91050Y-89879
X161850Y-86800
X130400Y-75450
X88600Y-40550
X157250Y-86450
X97000Y-90344
X125950Y-82717
X121358Y-91742
X112850Y-89700
X112219Y-78593
X134250Y-83850
X132185Y-75818
X147850Y-8000
X116950Y-75750
X127550Y-84750
X124450Y-90600
X215450Y-91400
X102400Y-21200
X109050Y-90450
X108700Y-82450
M30